<mxfile host="app.diagrams.net" modified="2022-03-08T10:29:39.176Z" agent="5.0 (Windows NT 10.0; Win64; x64) AppleWebKit/537.36 (KHTML, like Gecko) Chrome/98.0.4758.102 Safari/537.36" etag="Jol4zhu8s7b35IieTYe6" version="16.6.5" type="github">
  <diagram id="g34JE0b5yxm6xVbMjyhV" name="Page-1">
    <mxGraphModel dx="1400" dy="1412" grid="1" gridSize="10" guides="1" tooltips="1" connect="1" arrows="1" fold="1" page="0" pageScale="1" pageWidth="827" pageHeight="1169" background="#ffffff" math="0" shadow="0">
      <root>
        <mxCell id="0" />
        <mxCell id="1" parent="0" />
        <mxCell id="2pQCbQe6PoVhrSyArQuO-9" value="" style="whiteSpace=wrap;html=1;aspect=fixed;labelBackgroundColor=default;fontFamily=Helvetica;fontSize=12;fontColor=default;strokeColor=default;fillColor=default;" parent="1" vertex="1">
          <mxGeometry x="40" y="50" width="230" height="230" as="geometry" />
        </mxCell>
        <mxCell id="2pQCbQe6PoVhrSyArQuO-13" value="" style="whiteSpace=wrap;html=1;aspect=fixed;labelBackgroundColor=default;fontFamily=Helvetica;fontSize=12;fontColor=default;strokeColor=default;fillColor=default;" parent="1" vertex="1">
          <mxGeometry x="40" y="640.93" width="230" height="230" as="geometry" />
        </mxCell>
        <mxCell id="2pQCbQe6PoVhrSyArQuO-15" value="" style="whiteSpace=wrap;html=1;aspect=fixed;labelBackgroundColor=default;fontFamily=Helvetica;fontSize=12;fontColor=default;strokeColor=default;fillColor=default;" parent="1" vertex="1">
          <mxGeometry x="560" y="50" width="230" height="230" as="geometry" />
        </mxCell>
        <mxCell id="2pQCbQe6PoVhrSyArQuO-17" value="" style="whiteSpace=wrap;html=1;aspect=fixed;labelBackgroundColor=default;fontFamily=Helvetica;fontSize=12;fontColor=default;strokeColor=default;fillColor=default;" parent="1" vertex="1">
          <mxGeometry x="560" y="640.9300000000001" width="230" height="230" as="geometry" />
        </mxCell>
        <mxCell id="WroAq-mQZTox9uwcmQEj-20" value="" style="shape=image;verticalLabelPosition=bottom;labelBackgroundColor=default;verticalAlign=top;aspect=fixed;imageAspect=0;image=data:image/png,iVBORw0KGgoAAAANSUhEUgAAAOEAAADhCAMAAAAJbSJIAAAAjVBMVEX///8AAAD+/v5AQED7+/vJyclUVFSgoKDe3t7o6OgKCgrk5OTb29tCQkIEBAT29vYzMzPy8vIgICDQ0NDs7Ow8PDwtLS3V1dUWFhY3Nze6urrDw8OmpqZOTk5ISEiBgYFsbGywsLB1dXUbGxtfX19TU1MREREoKCiSkpKJiYmZmZlpaWlcXFyNjY16enopqx2vAAAQmklEQVR4nO1dC3uqPAwupW4gICLg/TJ10znd/v/P+5K0oNsUkWPL+B7fc3ZDoA1pkzRJA2MPPPDAAw888MADDzzwwP8JnF/6438Fjqi7Ew9UBaf/P3/9H0LU3YF7A6adEBzIEoPlwt5YiE2wWA4Ey2Zlw9mJFHIWxqu+JdFRP/tfcajor7uP/wSBTIqm8yNxneOv82nE6AE0GTA++bJHJGXMkxTKv7dL3uyJiaovtq0i2DGN5Lp7Wg04/sSukD5k5E6wps5F4EzyZH0fnb8ohE+fIhzMTQRnzgjnX/sKhVbqNFVj+GskoVPERJQ4Havn1N3Vm0Ga3Cmegt8mo8caZpKTFhxahez7hnXUtAWV4OHTLyVYxMRD2DBpI9in1SnLwzbO1Y8GGag0oVqKN+XRAgqbMVIFkhiObiGOHsYIx2kjhioJxc/b+Ed4b4oZjhQmN5OHTyRhzZiLsOIDFt7Kww4xUTRiIuKC99hrNGouyNTOicUjv4cNETWcTbNevzxZ3xa+P7lGRw8v2aEpa8Y8ZOKgevzMROtle55AdWz7EofsWR05NGOUMu6pDq9Ibrjjt4uz72nskmhaqb+9RlAo2Ifqr4uDDrscTj6DX9QFn5NQXsFZ9kw+GiFLGXuV3X3NVgv0PYynu/1stN70RrP95zQm6ki/o8NNXbJvBIUi6Waz8GihyN94GCVJEoVExjGEAT/UTOwmtXT5VgzUkGuhAYcHuPSaHr2/RJzI9Dv+aKlrBjX2uzzGqrcJOw5TopAIUt+5OK554ZCrpOu4vm7fgHdFYdnwC9Gci5omYHUjhYRcwTQBSt+vSxOITNxIj8Cr1p7dCzNJYe+mlcJQzsM3jf26H+Y5hSXdZ3jaUF401925u2Cej9KSNhieJSOL1kxv1+6EWSZpyo5SfBKZoaq5b/fBq1pJlI8pHSnc6+3anfCleivKkoieK3XNQnfn7oJnZZ+4JUcpzxcXHVgDNwFotaEzMS7rk1DuVbymGVYb9nbqLKxlWccSnLa0Ft4zPZUmwLfQbcb8cUkK0Qof+9Ke9bX37h7wtpb1JfOeymsLOBXs2a2nuW93AY8Cy3oLb1usA40h6NF5qKlTdwVne4wH3uhT4jwZNsWLwRnmX9wat+Y0fXeNoFCqi2X5vnK59F82RlkwUt+rG7nBGXq+3YbwMEotK7hV1KB8siNNPbozOFmmt3rN0EP3paU/dweXU+pWC/MZrNIbJm+dwGQvtVovvbaAb+j2b0h0DckC5d3xednMSqF0xVNDshSxk1NLRnRLjToi650GdlMolMu9YVlPFPG6TU5y0YiJyOUw7ViTsi5hIY2Ep0bl0mKP38ryEIYz+ucm2nt1T4SpJbOcykCwiYU2guY+3RUyWaFkWJ5Tll9DXDQ5RNK/wZBGC6GbNGcOImRUtx9dnYn4ebIlL1ujKEQPaJdWGKJ4pAp00mA4biSaoSlyKAUA8hGTwArOA6tgjI7SCW9EWmIOSjLE+EXbLU6ohNNcGa8QDdKFCGXYdKxZ8SgFu45CVV6TlP0RlN72itbp2ZFKyQvigHGcpfG+3QVCUET/RZwXN2TxiL1FK99GzcEcgiUBMuhVsHO5v8hYzPHrWPOoWWI0B7DIpR1BM++crgO2eXN8Am23GUmXObjaGhsChE8xs/ZSfcLzXc74tZT7MbzG7ZZF8qLE9RyAN5YB+jc/WxoRLfib/0bbnnoyGCNoIDdGnoowwRQ9gJvE82EPOYWZsjxP14viF+KulfqSd0LwnLd/HjhC3UzPcxat+nI0zneTBIdumEx2qAQxxfvgKr7JUdoYHrJkMonyzEqZUSuzFzbdUVclliA+mZqVnCdj/4+rDLK6oI88nu5Bgq5bJ5+1ZtY5HE7joWjGDvfTmKtdN3+PmzTKopbcdw/ic5d4Eq6bJNH4N42ziZBJpzLZdKEO9xet6C9SSCsD9z1V4xH+930FEKhJEkaTvOYAoruaRKRPMkR9K9/NF3wkf88pBb3xdhtLbSAhITJ1Mnhegnx0xh8vs25/NFt9jJ3IJUmbZCJ3qUiXRG527p8Rq9mOunCnpGO+syJ1Bhn8QcZOIBe+FHcHfg6va+UkSuzESUpxrRRKc2S5OXauvU3t1La3DlnclOKNv6g/qBAIfcsO4G/+1rbT1O4Oj3RulmQH1G7QYW+Ztz8VIf3ADgDpguW6Ttoxx76qI8dM9i87wH+BfaJKrL33F/br4Qqh1Tvd8jsMbBv7ao/8PDUf14eZ0SaP8BNZwpnfxSvgmuAojuB+29bZVYlZcHKNdtQ/RC+Q/LDTrxMejv2TKxD+ODd7OP9KkUD4FnSP8qbTuSkdQAdoYStW1nf0iIfwZXdbTPIKuvnem71PPIpi89CbvM97H/lag026eDrxsPvjbl+C16c5kDzcz9M5QyHOxHm6PzrqWyN7NApmh9fX18MsSEdpf6y2z3AevqbBJQqtvWC1ueFIWhx+7byTPOz3AMN3WESBNkRPzUwxNsWv/toatlpxK44HbsimI/sShWic1yhPgYOr31UFkMJcJrY8x48H+CzGo2x+Bl1c+b8PgLw4BioHaVBEIQzUWtYcMoJ9rvqMHKVKse3DxPV90gy7fiDZSB+tklDgQtkfxE+oX2w7OD9KO7gC4eb36st9TNMzBKpRmqnuiYg8H/smxHsfxeUIGdh5z2eWWOI1isAzFCKmtHIxOxlJZcfnevODwiCJXF+aX2KMGgEIHNoTJiKYoW4S8nDfx8VWIHXoeQrbsXmXOFlh/XO9+UGh9R45kkIQFy80RHv2irn+AC1yz3E/unNk6za4MEoJXWHcuMEnuji/5/4HhZ2JP+AUyRbsEPTw82DmgNGNi6okmVgbOXJHwcVR2qGkRcMUiktj9IekAaSxryxsNoP+b9Ay83zfjUAbhmEABKRI11Aq/fM8xCQy46NUnPdMKG2BOn0ESNO0u2RqLc9SoLuLpqfjgKoPI9qn3kGie/hBEYUz0/VrBFte6IrioS0XGPgtjbI11hZFSgqq0gEVFwIPXanxtkGKTLw8Dy3zFiqPLhaaUxTaGZ32aAePHxkQwaddG+VTxELPi6LM5GunMG/bo0IK5zemc/4Tdfg0L7Iws0szEoHG7YTcZxgLbQcBSJVOEjpOEuFNVHXBeZ/WlZcp7FAEzsxclCNudLF4yTceSqjQjI+LxxH0tuckDtg0fi6O4HAHxuplCtE7zsomyt2DRNwXU57CYLTLtv70UM60+7HrRuJkWdK27bbU+hdHqcEyS+SyfbnckTM8DEZj7NsYZQpS2J2AlEGbLyvH17Zh8A6vULgyF0cFuXG5H+d4CHMxktn424BKnUzDkOqD5DxMr1GIZ3JTuYuSG7fw0LZHK5kJ1pOOmHchk/UylBql1tiUwuA830RZmsKgP+YYoSFJA0YY58+n19DhIklDWJiSpaCsz9vcBRRC3z3MA4bhiGvjL8p6PoKmZ6G2QHRDQ5Ybz0vslKUQj6QrsVgjGTgRX6LZqSxup/OrGh9RdldqVcIYy9y6y2IKpcF2hFr5Lb/QwCar7fV7PTey2taX14cZxiwPI2igVMWiGXOeX9eFFJ4dpMjIebBGA7uLWkIRSD9gWbG+ZnnLW79OnczzpomZnHlfm6I+WBfnIdmoaND8ogIWiH0kkxxShRTiyQvNe6NapM6s9mV0tvMgmJ9BgP+3+ATmo43V3sjTrTb8nbY7sEico491VHRvanvbut7N6sB8bGu+jP2LiCctz/UuY7xcwglOPBlPEOPJwHUdOBirz/1xa3D55ktSorpS3tU2il7hdmseeUVbecEqGcSxE6JrH30YES2q4JCbnRH6SVg0DDEKZHl6yg/CDIcnaHt5VOzsSUhhcVawT45unl8Afx8JRAovWp8kyT0QuzMtjje4J4zRzSBXGefPukYhPB0PSBo45KWJPKRvEB0/JR5e7AK2PGhT6vH9SYSbv6DPS2WV8HO4SqEMlBLbjvBO7Wk5Ss9DyIDpAiwGPfabu6UsO1a01C6mMD8eOhSyaMWx734flFd4iAsbkAZbV4vGd8gze+WsYklzcmIYAcJf5kkRhbIbZBXrqeIeU0pz8fAoS+ExwP3jaOhcoRAG6kFX/YwBei2vPDseuigXrz3gPEnv+wMjCqPilTycEuipzQdyGuy1a+sXUHNuiaB0rm9+nRh50bWFfAQmnpb6GbSf3LniK4Hp5f1L1rbwkvBKC9zXVT+DagKMr41AESZeIqoiRB9c8SKQ3D1atAXHIt1Uc7v4NCTRc6rB89wovCKuqezGpyZ/hnx4xedggnCUJG4VYG5GeM3iVENJB4GcOxQCunoarzxIxfWsC15KHFQDRyG29urOFeTekEoT6Li1UkR155kNtMWhOM2A+vdgLak0jJ7lIbp0d/e/841YUFFsLZa3QGf+4f53vrEbTyRKtWgL8mKkde+ax3eDeHqSo/GmIEzrfjUThlWZLj8NY1uMU9aLlmX19QxS8lL8AWEqRak2nTVV9QJrA9Ue1FlfYmJZds0UjvQWQfHb1obVt5sFXQNtq+3r6YDcGdNDUV0nwPrfalVYc/LGVn2GmVu1+uVodOitiC3neVVZLRdHlbN9sdln3XXrpDCtTCET3sCrnDKC7WoWpeQzDapTyB18q8ChslmECZy6aw2jzSQqCdNjTessNnD7LeAe2u1GLGvpVpmHlGBgq9D9vKKwomcUaC2QyfE9QJVCW1x6QSy5YSusNgxIlL5qzjhZVH0pE0dXrnwTWcfyK81luOSdMqMqNF+6DTR8v6owIOOhzJgNK2XeS1GqNx2a/5sf6EkxseK7VgQL57p9YVSadJ1UbcOTuSrdioYftL6x2pVbL9cGR2FaXVw7L71276Xq9RSkDSKtdj/Mpj06giqaXViVYHAlV6OwdV1BmW+NvMt6HZWvZxV1IVNBmauxoX+DoMdYX214HEB6N7HJLQV11ffnIQVl9FLIMYm9V9ci2OvJt9dobALXr/363uEHynhUlJF1B+DNa/QoagvKHIFi8KO+dxYt6MWYmjU+mff1vFmLqmmODVAIk6FfR40DEHJbetWO3salMMWEHeMqEWy2jdWp5mC4EV0Kz9Sg9FsgSg20q8IzdVg10xLZLncAVXnWu86+hC96uYCBhlR4xjSNFJTB6KX+zU+DzS3vNrwTZAR6aOatZRE8y8QwhRh1ckHQGHrVzqyO9xjQVgEzr5pVsQPTRXG4DMqYaXVKlqnxiWhMlFLNjzct6R5FrXL0JJp5ASQFDzZ6sgOLWg3bVsdMZiRnSWr+DWn0XG29nsQcgsvwjJHGMtCqzZQLjJx6H2ZtbxmU2RmqqlCLZUpRLzOiNBswpmWp2MusSzPNwaTv69g9VgTcOecaIlBwYasRY6aYCmXggJkRGCqgyGWxvZ4n688aaRB0xZqcmIYkjRCsZ1lpYmgJhRlGqIK3xgrvCVljyOq3TLncxARLjbSM1U6kopBLDObOnict/Zg80y78pdrpbAiwWjtW1TOBdcvwu2hAqEULczSuF5HxN7XgcPHGq8Pbk268Hb7GLjNf9tr4Et+MZjppEMTa8vl5+mwC0MrSeJVdwcODsVmIOJiufclYYa0oDXCvd+muENw1S6DmVKjfuFKV7v6YFL9l8IGKMCbd6npzQGEpnuY1c6l1g23UQKa5JrnZ5h544IEHHnjggQceeOCBm/EfrmDpi1rLim4AAAAASUVORK5CYII=;" vertex="1" parent="1">
          <mxGeometry x="297.66" y="870.93" width="225" height="225" as="geometry" />
        </mxCell>
        <mxCell id="WroAq-mQZTox9uwcmQEj-21" value="" style="shape=image;verticalLabelPosition=bottom;labelBackgroundColor=default;verticalAlign=top;aspect=fixed;imageAspect=0;image=data:image/jpeg,/9j/4AAQSkZJRgABAQAAAQABAAD/2wCEAAoHCBYUFRgUEhQSFRISFRISEhISEhIREhgSGBYaGRgVGBgcIS4lHB4rHxgYJjgmKy8xNTU1HCQ7QDs0Py40NTEBDAwMEA8QHxISHjQrISc0NTQ0NDQ0NDQ0NTQxNDQ0NDQxNDQ0NDQ0NDQ0NDQ2NDQ0NDQ0NDQ0NDQ0MTQ0NDQ0NP/AABEIAOEA4QMBIgACEQEDEQH/xAAbAAEAAgMBAQAAAAAAAAAAAAAABAUCAwYBB//EAEEQAAIBAgMEBwUEBwgDAAAAAAABAgMRBBIhBTFBUQYTImFxkaEyUoGxwSNCgtEzYnJzsuHwFBVTkpOjs/EHNEP/xAAaAQEAAgMBAAAAAAAAAAAAAAAAAgQBAwUG/8QANhEAAgECAwQHBwIHAAAAAAAAAAECAxEEEiExQVGhBTJxgcHR8BMiYXKRseEUIyQzQpKi4vH/2gAMAwEAAhEDEQA/APswAAAAAAAAAAAAAAAAAAAAAAAAAAAAAAAAAAAAAAAAAAAAAAAAAAAAAAAAAAAABFr4uMdL6+6iE5xgs0nZGUm9ESgVbxc5eysq57/V6Hnbe+cvVfKxVeOp3tFN8uT15G1UXvduZagq+ql79Tzn+Zi86+/L4v8ANMx+tS2x5rxsPZLdL1zLYFWsbKPtRzLmtP5P0JdDFRlonr7pup4qlN2Ts+D0+nHuuQlTlHV7CSACwQAAAAAAAAAAAAAAAAAAAAAAAAAAABhKSSu3ZLe2ZFBtDFurLJB2gvafMp4zFxw0LvWT0S4/hbzbSpuo7bt5vr49zbVPSK0cufhyMsPhv+2MLQSW60UTLnJp5qsvaVXf1u4Ls277vU3SkorLARgl3mVzByPMxcjNRVkarGzMLmGYZiXtRlPJ00+4h18G9605NE6LM2yMqUKi1Xr4kozcXoQMLtFxeWr4Kf0ZbJlTjcMpKz+D5GnZeMcX1dR90WzFHFSo1FSrO8Xom9qfB+D28eKlOkpxzw2714ovQAdcqgAAAAAAAAAAAAAAAAAAAAAAAFZtjE5Y5Y+1Ir8JStpxe8xqz6ypJ8Foibg12m+R4+tWeLxObc3ZfKvPVnQS9nTtv2vtJkIJIxkrGTka5yOnUcVGyK6vcXFzEWNKkyVj24uY2FiWZgzUjYpGgyjInCo1oYaNs1dWKfHUr6r2olspETEx7XiYxMVUhZ7ydGTjIlbLxWeOvtR0ZPOd2fPJVtwkdEdDo6s6tG0utHR92xmrEQUZ6bHqAAXzQAAAAAAAAAAAAAAAAAACPjJ5YSfcSCDtf9FIrYybhh6kltUZfYnTV5pPiU2Ejpfnr5llhFoyFhl2fL5E7DM8phko1I/DyLtZ3ubmeWPTHOr2bV2m0m1dpWu7fFeZ0XqV9h7Y9sMyXFeHHyPFfNu0stNL8df6ZNRMXPcoymw1Qk1fNz38Ny7tCWQZhlPLGxo1xmnezTs3F2admt6feRsZueo0YlEgj1+PwFTqko9YrcVo1Lk0dHSlmSfNI57GLs/1zL3Au9OPh9Tb0a7V6keKT+n/AEliV7kX2kkAHbKYAAAAAAAAAAAAAAAAAAIO1lelLuVycaa8M0WuaNGKpurQnTW1xa+qJQeWSZRYWWnwRLpSK7CytpybiS4SPFKdkpI6NSOrJzkRcbhs2Wcf0lO8orTtK2sHfnzMoVODNikX6eIUtUV3EzoVIyipQtlklJWVtGjNz7S70/S1vmysw1TJUlSfszTr0vBtKpD4SkpfjXIlV52yPgppP8ScF6yRZVXUhYmZjXTndN/rS9JNfQwdVLVvRavwNWGl2IX35Yt+NtfUz7W4yjGSUY9lLPJqEFwc5bm1yWrfcme4PDqnBQi29W3KW9ybu2yJSqdZVlL7lG9OHJ1Gk5y+Cyx8c6JjmHPcZSNubiRqktGJVL+BqqSNDq5mkjbGJGxb08i/wUbQiu456p2pRiuJ00I2SXKxe6LWarUnwSXj4GMS7RijMAHcKQAAAAAAAAAAAAAAAAAAAABze0KWSo/dnu8T2FS+vFby12lhOsjp7S9k5+FVr9paNHkMfhXQrNLqyu14rufJo6VGSqQ+K0LB6iFS2800qq+HyM5HJblB5kZcdzNW1YNwVSmnKrQkq0IrfJJNTpW5yg5RV9LuL4EqE41IKUWp06kYyi1ucZJOMk/J3NNyBs2o6c6lD7sX11K/+FUbbj+GamrcIuBahik17y2cCDgSk3Ko6UrumoZsrlKV9bWd3qu427SxTpwcopSm3GFOLvaVabUYJ24Zmm3wSb4EanN9bJ/qJeb/AJGhzdWvdvsYZabv/YqR1fc40pf7z5FieJV1e70XPtDgWWEoqlCMMzeVayds05N3lN24yk3J97Z7Od9OBpTNkTTUqyk7GVFIzRqr1NbGVWoorv4IhNuTyrWUtDZGVkbIQvqTtkUs03P7sN3jwOgIuBwypwUePFko9TgcO6FFRl1nq+17u7YUK9TPO62bgAC4aQAAAAAAAAAAAAAAAAAAAADCpuKXa2A31Ib0u0uZenljRicPDEU8k+58HxXrVaE6c3CWZHGKfFGccVbfuJG18N1c7r2ZfMhxg5bvU8ZVi4SdOotU7Pz8jrpRnFS3MlxxEXx48SLj1lnSqr7tTqZcW6dW0bf6ipP4Hn9k715GjGU3TjnUtzgrW5zj387GulllNK+1/eyISpxSbTJ8Pbm2nZRi3x9m9/maNkxfVQlJNTqrrppvVTqPO4/C+X8KI0sS49a3O6hSqytZ8INlklfXnr58CxiFCME4O+7duX5NeV5tTZmE6mVHiiaMQ9fBGmk9Sahd2NdSq2+cnuRe7IwGTtS1m/RELYWFzPrJLRbjokjv9F4RTSrzXyrx8uG0r4qrb9uPf5HoAO6UQAAAAAAAAAAAAAAAAAAAAAAAAAACm6RL7NPk7/IpcPLf4Iu+ka+yvy/r6HOUJ6vwPI9LpLEy+KX2OthFeh3sm5iHtGfZfdlfx6yCXzNuYhbRn2X+D/lgcugv3I9q+5tlHRnlfEdmv+6rfwMtlLVrlJpeG/6nN4l9mt+6rfwMvYz1l+19EWasm4K/rQxl94lxkR8a9H8D2EzTjZ6P4EKex9hmMfeR0mwl9ku/8kWRW7DjajHv/JL6FkexwK/hqfyr7HJr/wA2XawAC2agAAAAAAAAAAAAAAAAAAAAAAAAAACPisOqkHB/eVjisRhJ0ZZZJ8crTvePNHenK9M4K9CVu0pySktJWcbtXWttF5FDF9H08S1KTs9l1w+JZoYmVG6SumV1nyl5EHaDeXc99NaJv/6QLnHRtTunK+T35cvE5GE5+/U/zyKC6Cimmqj/ALfyb3j7q2Tn+CXjJdirpL9FV+7L3GWkKm/x+iLXoxSzU7ybk773Zv5FzKMIazlGC5ylGHzEuhM22p/j/sZ/Xq/U5/g5iMnwUn4K5lhcBUrSSyuME+1KScdOS5s4PpziI1a2SlU6zNO2WFRzi1fVaOx9a6MYJ0cPCEoKErXlDS6ffbibIdCUo9abfLzIvHy/pir+uwtKVNRSityVkbADspJKyKAABkAAAAAAAAAAAAAAAAAAAAAAAAAAAAoulEKMqcYVnKLnO1KcZODjUSbTUk9NL6cVdF6UXSqvTjQar089Go1CpJxc4wvulK27W1pcHbuAKqeyUqaU8RUnp7TqTjpb9pnKV9jQc244vJDTs55yffrnR0EqOz401Z0pK11mjTm/D2TmK9DZ7m5OcovTsU4wjHyyAHV9H8DhoQfWYmE03uqVLRXwlN3LPELBKE8vV2cXeVOk5LxcoRZW9FquEjB9VGrJt62p1JeqjZFzjMfDq5/YVXDK7tqklbwlK/oAfJMXWjGulQipycrRlOMoRiufa7Xoj7bsqE40oqpKMp5VmcW3HwTe9d58VxlWc69qMHTjKXanLLNpeFkl6n2nZFJRowipudorttWu+OnDwAJwAAAAAAAAAAAAAAAAAAAAAAAAAAAAAAAABTdI8ROnRco03Uhqq0Y2curad2oveua32LkibQwqrU5U23HPG2aO+L3prwaQBysdo0erTp0KuW26MHa/mcrjNo4ZTfWYabqWV8zs7cONjqJ1qtD7Gskpa5J2vCffGT+W9HN4/GzhNu8bt73CH5AHS9FtpQlCXU4Vpp9rWml53v6F1isTXySy0Kdsr06yTk+6ygl6nO9GtrTySlKSve26x7tfpPOEW1NRsvdi/mmAcLtGNSdd58tGGa81TnKLtyzOT+h9n2KoKhBUr5FHRyeaT5tvi7nybYuxK+16/W1ZTjg4yvKo0o52nrCmkrPvluXjofY8Nh404RhTiowglGMVuSQBuAAAAAAAAAAAAAAAAAAAAAAAAAAAAAAAAAAABoxWGhUi41IxlF74yV1/J95xm2ugjnd4eu46PLCt2kpcLTSvbxTfed0AD5xszoXjIxyzrUo66dXmmmud2l8ibs7/AMfxcnPHVP7RaV4Uo5oUlFe/xm+7RdzO6ABqpU4wiowioxikoxilGKS3JJbkbQAAAAAAAAAAAAAAAAAAAAAAAAAAAAAAAAAeAHjkjF1UjJxRi6SYBqli4Lia5bSgt8kbJYSL3o1y2bTe+K8gDD+96Xvx80bI7Rg90ka/7ppe5HyRsjs6C3RQBsjiovibFVTNccLFcDYqSQBmmeniR6AAAAAAAAAAAAAAAAAAAAAAAAAAAAAAAAAAAAAAAAAAAAAAAAAAAAAAAAAAAAAf/9k=;" vertex="1" parent="1">
          <mxGeometry x="120" y="65" width="70" height="70" as="geometry" />
        </mxCell>
        <mxCell id="WroAq-mQZTox9uwcmQEj-22" value="" style="shape=image;verticalLabelPosition=bottom;labelBackgroundColor=default;verticalAlign=top;aspect=fixed;imageAspect=0;image=data:image/jpeg,/9j/4AAQSkZJRgABAQAAAQABAAD/2wCEAAoHCBYUFRgUEhQSFRISFRISEhISEhIREhgSGBYaGRgVGBgcIS4lHB4rHxgYJjgmKy8xNTU1HCQ7QDs0Py40NTEBDAwMEA8QHxISHjQrISc0NTQ0NDQ0NDQ0NTQxNDQ0NDQxNDQ0NDQ0NDQ0NDQ2NDQ0NDQ0NDQ0NDQ0MTQ0NDQ0NP/AABEIAOEA4QMBIgACEQEDEQH/xAAbAAEAAgMBAQAAAAAAAAAAAAAABAUCAwYBB//EAEEQAAIBAgMEBwUEBwgDAAAAAAABAgMRBBIhBTFBUQYTImFxkaEyUoGxwSNCgtEzYnJzsuHwFBVTkpOjs/EHNEP/xAAaAQEAAgMBAAAAAAAAAAAAAAAAAgQBAwUG/8QANhEAAgECAwQHBwIHAAAAAAAAAAECAxEEEiExQVGhBTJxgcHR8BMiYXKRseEUIyQzQpKi4vH/2gAMAwEAAhEDEQA/APswAAAAAAAAAAAAAAAAAAAAAAAAAAAAAAAAAAAAAAAAAAAAAAAAAAAAAAAAAAAABFr4uMdL6+6iE5xgs0nZGUm9ESgVbxc5eysq57/V6Hnbe+cvVfKxVeOp3tFN8uT15G1UXvduZagq+ql79Tzn+Zi86+/L4v8ANMx+tS2x5rxsPZLdL1zLYFWsbKPtRzLmtP5P0JdDFRlonr7pup4qlN2Ts+D0+nHuuQlTlHV7CSACwQAAAAAAAAAAAAAAAAAAAAAAAAAAABhKSSu3ZLe2ZFBtDFurLJB2gvafMp4zFxw0LvWT0S4/hbzbSpuo7bt5vr49zbVPSK0cufhyMsPhv+2MLQSW60UTLnJp5qsvaVXf1u4Ls277vU3SkorLARgl3mVzByPMxcjNRVkarGzMLmGYZiXtRlPJ00+4h18G9605NE6LM2yMqUKi1Xr4kozcXoQMLtFxeWr4Kf0ZbJlTjcMpKz+D5GnZeMcX1dR90WzFHFSo1FSrO8Xom9qfB+D28eKlOkpxzw2714ovQAdcqgAAAAAAAAAAAAAAAAAAAAAAAFZtjE5Y5Y+1Ir8JStpxe8xqz6ypJ8Foibg12m+R4+tWeLxObc3ZfKvPVnQS9nTtv2vtJkIJIxkrGTka5yOnUcVGyK6vcXFzEWNKkyVj24uY2FiWZgzUjYpGgyjInCo1oYaNs1dWKfHUr6r2olspETEx7XiYxMVUhZ7ydGTjIlbLxWeOvtR0ZPOd2fPJVtwkdEdDo6s6tG0utHR92xmrEQUZ6bHqAAXzQAAAAAAAAAAAAAAAAAACPjJ5YSfcSCDtf9FIrYybhh6kltUZfYnTV5pPiU2Ejpfnr5llhFoyFhl2fL5E7DM8phko1I/DyLtZ3ubmeWPTHOr2bV2m0m1dpWu7fFeZ0XqV9h7Y9sMyXFeHHyPFfNu0stNL8df6ZNRMXPcoymw1Qk1fNz38Ny7tCWQZhlPLGxo1xmnezTs3F2admt6feRsZueo0YlEgj1+PwFTqko9YrcVo1Lk0dHSlmSfNI57GLs/1zL3Au9OPh9Tb0a7V6keKT+n/AEliV7kX2kkAHbKYAAAAAAAAAAAAAAAAAAIO1lelLuVycaa8M0WuaNGKpurQnTW1xa+qJQeWSZRYWWnwRLpSK7CytpybiS4SPFKdkpI6NSOrJzkRcbhs2Wcf0lO8orTtK2sHfnzMoVODNikX6eIUtUV3EzoVIyipQtlklJWVtGjNz7S70/S1vmysw1TJUlSfszTr0vBtKpD4SkpfjXIlV52yPgppP8ScF6yRZVXUhYmZjXTndN/rS9JNfQwdVLVvRavwNWGl2IX35Yt+NtfUz7W4yjGSUY9lLPJqEFwc5bm1yWrfcme4PDqnBQi29W3KW9ybu2yJSqdZVlL7lG9OHJ1Gk5y+Cyx8c6JjmHPcZSNubiRqktGJVL+BqqSNDq5mkjbGJGxb08i/wUbQiu456p2pRiuJ00I2SXKxe6LWarUnwSXj4GMS7RijMAHcKQAAAAAAAAAAAAAAAAAAAABze0KWSo/dnu8T2FS+vFby12lhOsjp7S9k5+FVr9paNHkMfhXQrNLqyu14rufJo6VGSqQ+K0LB6iFS2800qq+HyM5HJblB5kZcdzNW1YNwVSmnKrQkq0IrfJJNTpW5yg5RV9LuL4EqE41IKUWp06kYyi1ucZJOMk/J3NNyBs2o6c6lD7sX11K/+FUbbj+GamrcIuBahik17y2cCDgSk3Ko6UrumoZsrlKV9bWd3qu427SxTpwcopSm3GFOLvaVabUYJ24Zmm3wSb4EanN9bJ/qJeb/AJGhzdWvdvsYZabv/YqR1fc40pf7z5FieJV1e70XPtDgWWEoqlCMMzeVayds05N3lN24yk3J97Z7Od9OBpTNkTTUqyk7GVFIzRqr1NbGVWoorv4IhNuTyrWUtDZGVkbIQvqTtkUs03P7sN3jwOgIuBwypwUePFko9TgcO6FFRl1nq+17u7YUK9TPO62bgAC4aQAAAAAAAAAAAAAAAAAAAADCpuKXa2A31Ib0u0uZenljRicPDEU8k+58HxXrVaE6c3CWZHGKfFGccVbfuJG18N1c7r2ZfMhxg5bvU8ZVi4SdOotU7Pz8jrpRnFS3MlxxEXx48SLj1lnSqr7tTqZcW6dW0bf6ipP4Hn9k715GjGU3TjnUtzgrW5zj387GulllNK+1/eyISpxSbTJ8Pbm2nZRi3x9m9/maNkxfVQlJNTqrrppvVTqPO4/C+X8KI0sS49a3O6hSqytZ8INlklfXnr58CxiFCME4O+7duX5NeV5tTZmE6mVHiiaMQ9fBGmk9Sahd2NdSq2+cnuRe7IwGTtS1m/RELYWFzPrJLRbjokjv9F4RTSrzXyrx8uG0r4qrb9uPf5HoAO6UQAAAAAAAAAAAAAAAAAAAAAAAAAACm6RL7NPk7/IpcPLf4Iu+ka+yvy/r6HOUJ6vwPI9LpLEy+KX2OthFeh3sm5iHtGfZfdlfx6yCXzNuYhbRn2X+D/lgcugv3I9q+5tlHRnlfEdmv+6rfwMtlLVrlJpeG/6nN4l9mt+6rfwMvYz1l+19EWasm4K/rQxl94lxkR8a9H8D2EzTjZ6P4EKex9hmMfeR0mwl9ku/8kWRW7DjajHv/JL6FkexwK/hqfyr7HJr/wA2XawAC2agAAAAAAAAAAAAAAAAAAAAAAAAAACPisOqkHB/eVjisRhJ0ZZZJ8crTvePNHenK9M4K9CVu0pySktJWcbtXWttF5FDF9H08S1KTs9l1w+JZoYmVG6SumV1nyl5EHaDeXc99NaJv/6QLnHRtTunK+T35cvE5GE5+/U/zyKC6Cimmqj/ALfyb3j7q2Tn+CXjJdirpL9FV+7L3GWkKm/x+iLXoxSzU7ybk773Zv5FzKMIazlGC5ylGHzEuhM22p/j/sZ/Xq/U5/g5iMnwUn4K5lhcBUrSSyuME+1KScdOS5s4PpziI1a2SlU6zNO2WFRzi1fVaOx9a6MYJ0cPCEoKErXlDS6ffbibIdCUo9abfLzIvHy/pir+uwtKVNRSityVkbADspJKyKAABkAAAAAAAAAAAAAAAAAAAAAAAAAAAAoulEKMqcYVnKLnO1KcZODjUSbTUk9NL6cVdF6UXSqvTjQar089Go1CpJxc4wvulK27W1pcHbuAKqeyUqaU8RUnp7TqTjpb9pnKV9jQc244vJDTs55yffrnR0EqOz401Z0pK11mjTm/D2TmK9DZ7m5OcovTsU4wjHyyAHV9H8DhoQfWYmE03uqVLRXwlN3LPELBKE8vV2cXeVOk5LxcoRZW9FquEjB9VGrJt62p1JeqjZFzjMfDq5/YVXDK7tqklbwlK/oAfJMXWjGulQipycrRlOMoRiufa7Xoj7bsqE40oqpKMp5VmcW3HwTe9d58VxlWc69qMHTjKXanLLNpeFkl6n2nZFJRowipudorttWu+OnDwAJwAAAAAAAAAAAAAAAAAAAAAAAAAAAAAAAABTdI8ROnRco03Uhqq0Y2curad2oveua32LkibQwqrU5U23HPG2aO+L3prwaQBysdo0erTp0KuW26MHa/mcrjNo4ZTfWYabqWV8zs7cONjqJ1qtD7Gskpa5J2vCffGT+W9HN4/GzhNu8bt73CH5AHS9FtpQlCXU4Vpp9rWml53v6F1isTXySy0Kdsr06yTk+6ygl6nO9GtrTySlKSve26x7tfpPOEW1NRsvdi/mmAcLtGNSdd58tGGa81TnKLtyzOT+h9n2KoKhBUr5FHRyeaT5tvi7nybYuxK+16/W1ZTjg4yvKo0o52nrCmkrPvluXjofY8Nh404RhTiowglGMVuSQBuAAAAAAAAAAAAAAAAAAAAAAAAAAAAAAAAAAABoxWGhUi41IxlF74yV1/J95xm2ugjnd4eu46PLCt2kpcLTSvbxTfed0AD5xszoXjIxyzrUo66dXmmmud2l8ibs7/AMfxcnPHVP7RaV4Uo5oUlFe/xm+7RdzO6ABqpU4wiowioxikoxilGKS3JJbkbQAAAAAAAAAAAAAAAAAAAAAAAAAAAAAAAAAeAHjkjF1UjJxRi6SYBqli4Lia5bSgt8kbJYSL3o1y2bTe+K8gDD+96Xvx80bI7Rg90ka/7ppe5HyRsjs6C3RQBsjiovibFVTNccLFcDYqSQBmmeniR6AAAAAAAAAAAAAAAAAAAAAAAAAAAAAAAAAAAAAAAAAAAAAAAAAAAAAAAAAAAAAf/9k=;" vertex="1" parent="1">
          <mxGeometry x="120" y="650" width="70" height="70" as="geometry" />
        </mxCell>
        <mxCell id="WroAq-mQZTox9uwcmQEj-23" value="" style="shape=image;verticalLabelPosition=bottom;labelBackgroundColor=default;verticalAlign=top;aspect=fixed;imageAspect=0;image=data:image/jpeg,/9j/4AAQSkZJRgABAQAAAQABAAD/2wCEAAoHCBYUFRgUEhQSFRISFRISEhISEhIREhgSGBYaGRgVGBgcIS4lHB4rHxgYJjgmKy8xNTU1HCQ7QDs0Py40NTEBDAwMEA8QHxISHjQrISc0NTQ0NDQ0NDQ0NTQxNDQ0NDQxNDQ0NDQ0NDQ0NDQ2NDQ0NDQ0NDQ0NDQ0MTQ0NDQ0NP/AABEIAOEA4QMBIgACEQEDEQH/xAAbAAEAAgMBAQAAAAAAAAAAAAAABAUCAwYBB//EAEEQAAIBAgMEBwUEBwgDAAAAAAABAgMRBBIhBTFBUQYTImFxkaEyUoGxwSNCgtEzYnJzsuHwFBVTkpOjs/EHNEP/xAAaAQEAAgMBAAAAAAAAAAAAAAAAAgQBAwUG/8QANhEAAgECAwQHBwIHAAAAAAAAAAECAxEEEiExQVGhBTJxgcHR8BMiYXKRseEUIyQzQpKi4vH/2gAMAwEAAhEDEQA/APswAAAAAAAAAAAAAAAAAAAAAAAAAAAAAAAAAAAAAAAAAAAAAAAAAAAAAAAAAAAABFr4uMdL6+6iE5xgs0nZGUm9ESgVbxc5eysq57/V6Hnbe+cvVfKxVeOp3tFN8uT15G1UXvduZagq+ql79Tzn+Zi86+/L4v8ANMx+tS2x5rxsPZLdL1zLYFWsbKPtRzLmtP5P0JdDFRlonr7pup4qlN2Ts+D0+nHuuQlTlHV7CSACwQAAAAAAAAAAAAAAAAAAAAAAAAAAABhKSSu3ZLe2ZFBtDFurLJB2gvafMp4zFxw0LvWT0S4/hbzbSpuo7bt5vr49zbVPSK0cufhyMsPhv+2MLQSW60UTLnJp5qsvaVXf1u4Ls277vU3SkorLARgl3mVzByPMxcjNRVkarGzMLmGYZiXtRlPJ00+4h18G9605NE6LM2yMqUKi1Xr4kozcXoQMLtFxeWr4Kf0ZbJlTjcMpKz+D5GnZeMcX1dR90WzFHFSo1FSrO8Xom9qfB+D28eKlOkpxzw2714ovQAdcqgAAAAAAAAAAAAAAAAAAAAAAAFZtjE5Y5Y+1Ir8JStpxe8xqz6ypJ8Foibg12m+R4+tWeLxObc3ZfKvPVnQS9nTtv2vtJkIJIxkrGTka5yOnUcVGyK6vcXFzEWNKkyVj24uY2FiWZgzUjYpGgyjInCo1oYaNs1dWKfHUr6r2olspETEx7XiYxMVUhZ7ydGTjIlbLxWeOvtR0ZPOd2fPJVtwkdEdDo6s6tG0utHR92xmrEQUZ6bHqAAXzQAAAAAAAAAAAAAAAAAACPjJ5YSfcSCDtf9FIrYybhh6kltUZfYnTV5pPiU2Ejpfnr5llhFoyFhl2fL5E7DM8phko1I/DyLtZ3ubmeWPTHOr2bV2m0m1dpWu7fFeZ0XqV9h7Y9sMyXFeHHyPFfNu0stNL8df6ZNRMXPcoymw1Qk1fNz38Ny7tCWQZhlPLGxo1xmnezTs3F2admt6feRsZueo0YlEgj1+PwFTqko9YrcVo1Lk0dHSlmSfNI57GLs/1zL3Au9OPh9Tb0a7V6keKT+n/AEliV7kX2kkAHbKYAAAAAAAAAAAAAAAAAAIO1lelLuVycaa8M0WuaNGKpurQnTW1xa+qJQeWSZRYWWnwRLpSK7CytpybiS4SPFKdkpI6NSOrJzkRcbhs2Wcf0lO8orTtK2sHfnzMoVODNikX6eIUtUV3EzoVIyipQtlklJWVtGjNz7S70/S1vmysw1TJUlSfszTr0vBtKpD4SkpfjXIlV52yPgppP8ScF6yRZVXUhYmZjXTndN/rS9JNfQwdVLVvRavwNWGl2IX35Yt+NtfUz7W4yjGSUY9lLPJqEFwc5bm1yWrfcme4PDqnBQi29W3KW9ybu2yJSqdZVlL7lG9OHJ1Gk5y+Cyx8c6JjmHPcZSNubiRqktGJVL+BqqSNDq5mkjbGJGxb08i/wUbQiu456p2pRiuJ00I2SXKxe6LWarUnwSXj4GMS7RijMAHcKQAAAAAAAAAAAAAAAAAAAABze0KWSo/dnu8T2FS+vFby12lhOsjp7S9k5+FVr9paNHkMfhXQrNLqyu14rufJo6VGSqQ+K0LB6iFS2800qq+HyM5HJblB5kZcdzNW1YNwVSmnKrQkq0IrfJJNTpW5yg5RV9LuL4EqE41IKUWp06kYyi1ucZJOMk/J3NNyBs2o6c6lD7sX11K/+FUbbj+GamrcIuBahik17y2cCDgSk3Ko6UrumoZsrlKV9bWd3qu427SxTpwcopSm3GFOLvaVabUYJ24Zmm3wSb4EanN9bJ/qJeb/AJGhzdWvdvsYZabv/YqR1fc40pf7z5FieJV1e70XPtDgWWEoqlCMMzeVayds05N3lN24yk3J97Z7Od9OBpTNkTTUqyk7GVFIzRqr1NbGVWoorv4IhNuTyrWUtDZGVkbIQvqTtkUs03P7sN3jwOgIuBwypwUePFko9TgcO6FFRl1nq+17u7YUK9TPO62bgAC4aQAAAAAAAAAAAAAAAAAAAADCpuKXa2A31Ib0u0uZenljRicPDEU8k+58HxXrVaE6c3CWZHGKfFGccVbfuJG18N1c7r2ZfMhxg5bvU8ZVi4SdOotU7Pz8jrpRnFS3MlxxEXx48SLj1lnSqr7tTqZcW6dW0bf6ipP4Hn9k715GjGU3TjnUtzgrW5zj387GulllNK+1/eyISpxSbTJ8Pbm2nZRi3x9m9/maNkxfVQlJNTqrrppvVTqPO4/C+X8KI0sS49a3O6hSqytZ8INlklfXnr58CxiFCME4O+7duX5NeV5tTZmE6mVHiiaMQ9fBGmk9Sahd2NdSq2+cnuRe7IwGTtS1m/RELYWFzPrJLRbjokjv9F4RTSrzXyrx8uG0r4qrb9uPf5HoAO6UQAAAAAAAAAAAAAAAAAAAAAAAAAACm6RL7NPk7/IpcPLf4Iu+ka+yvy/r6HOUJ6vwPI9LpLEy+KX2OthFeh3sm5iHtGfZfdlfx6yCXzNuYhbRn2X+D/lgcugv3I9q+5tlHRnlfEdmv+6rfwMtlLVrlJpeG/6nN4l9mt+6rfwMvYz1l+19EWasm4K/rQxl94lxkR8a9H8D2EzTjZ6P4EKex9hmMfeR0mwl9ku/8kWRW7DjajHv/JL6FkexwK/hqfyr7HJr/wA2XawAC2agAAAAAAAAAAAAAAAAAAAAAAAAAACPisOqkHB/eVjisRhJ0ZZZJ8crTvePNHenK9M4K9CVu0pySktJWcbtXWttF5FDF9H08S1KTs9l1w+JZoYmVG6SumV1nyl5EHaDeXc99NaJv/6QLnHRtTunK+T35cvE5GE5+/U/zyKC6Cimmqj/ALfyb3j7q2Tn+CXjJdirpL9FV+7L3GWkKm/x+iLXoxSzU7ybk773Zv5FzKMIazlGC5ylGHzEuhM22p/j/sZ/Xq/U5/g5iMnwUn4K5lhcBUrSSyuME+1KScdOS5s4PpziI1a2SlU6zNO2WFRzi1fVaOx9a6MYJ0cPCEoKErXlDS6ffbibIdCUo9abfLzIvHy/pir+uwtKVNRSityVkbADspJKyKAABkAAAAAAAAAAAAAAAAAAAAAAAAAAAAoulEKMqcYVnKLnO1KcZODjUSbTUk9NL6cVdF6UXSqvTjQar089Go1CpJxc4wvulK27W1pcHbuAKqeyUqaU8RUnp7TqTjpb9pnKV9jQc244vJDTs55yffrnR0EqOz401Z0pK11mjTm/D2TmK9DZ7m5OcovTsU4wjHyyAHV9H8DhoQfWYmE03uqVLRXwlN3LPELBKE8vV2cXeVOk5LxcoRZW9FquEjB9VGrJt62p1JeqjZFzjMfDq5/YVXDK7tqklbwlK/oAfJMXWjGulQipycrRlOMoRiufa7Xoj7bsqE40oqpKMp5VmcW3HwTe9d58VxlWc69qMHTjKXanLLNpeFkl6n2nZFJRowipudorttWu+OnDwAJwAAAAAAAAAAAAAAAAAAAAAAAAAAAAAAAABTdI8ROnRco03Uhqq0Y2curad2oveua32LkibQwqrU5U23HPG2aO+L3prwaQBysdo0erTp0KuW26MHa/mcrjNo4ZTfWYabqWV8zs7cONjqJ1qtD7Gskpa5J2vCffGT+W9HN4/GzhNu8bt73CH5AHS9FtpQlCXU4Vpp9rWml53v6F1isTXySy0Kdsr06yTk+6ygl6nO9GtrTySlKSve26x7tfpPOEW1NRsvdi/mmAcLtGNSdd58tGGa81TnKLtyzOT+h9n2KoKhBUr5FHRyeaT5tvi7nybYuxK+16/W1ZTjg4yvKo0o52nrCmkrPvluXjofY8Nh404RhTiowglGMVuSQBuAAAAAAAAAAAAAAAAAAAAAAAAAAAAAAAAAAABoxWGhUi41IxlF74yV1/J95xm2ugjnd4eu46PLCt2kpcLTSvbxTfed0AD5xszoXjIxyzrUo66dXmmmud2l8ibs7/AMfxcnPHVP7RaV4Uo5oUlFe/xm+7RdzO6ABqpU4wiowioxikoxilGKS3JJbkbQAAAAAAAAAAAAAAAAAAAAAAAAAAAAAAAAAeAHjkjF1UjJxRi6SYBqli4Lia5bSgt8kbJYSL3o1y2bTe+K8gDD+96Xvx80bI7Rg90ka/7ppe5HyRsjs6C3RQBsjiovibFVTNccLFcDYqSQBmmeniR6AAAAAAAAAAAAAAAAAAAAAAAAAAAAAAAAAAAAAAAAAAAAAAAAAAAAAAAAAAAAAf/9k=;" vertex="1" parent="1">
          <mxGeometry x="650" y="650" width="70" height="70" as="geometry" />
        </mxCell>
        <mxCell id="WroAq-mQZTox9uwcmQEj-24" value="" style="shape=image;verticalLabelPosition=bottom;labelBackgroundColor=default;verticalAlign=top;aspect=fixed;imageAspect=0;image=data:image/jpeg,/9j/4AAQSkZJRgABAQAAAQABAAD/2wCEAAoHCBYUFRgUEhQSFRISFRISEhISEhIREhgSGBYaGRgVGBgcIS4lHB4rHxgYJjgmKy8xNTU1HCQ7QDs0Py40NTEBDAwMEA8QHxISHjQrISc0NTQ0NDQ0NDQ0NTQxNDQ0NDQxNDQ0NDQ0NDQ0NDQ2NDQ0NDQ0NDQ0NDQ0MTQ0NDQ0NP/AABEIAOEA4QMBIgACEQEDEQH/xAAbAAEAAgMBAQAAAAAAAAAAAAAABAUCAwYBB//EAEEQAAIBAgMEBwUEBwgDAAAAAAABAgMRBBIhBTFBUQYTImFxkaEyUoGxwSNCgtEzYnJzsuHwFBVTkpOjs/EHNEP/xAAaAQEAAgMBAAAAAAAAAAAAAAAAAgQBAwUG/8QANhEAAgECAwQHBwIHAAAAAAAAAAECAxEEEiExQVGhBTJxgcHR8BMiYXKRseEUIyQzQpKi4vH/2gAMAwEAAhEDEQA/APswAAAAAAAAAAAAAAAAAAAAAAAAAAAAAAAAAAAAAAAAAAAAAAAAAAAAAAAAAAAABFr4uMdL6+6iE5xgs0nZGUm9ESgVbxc5eysq57/V6Hnbe+cvVfKxVeOp3tFN8uT15G1UXvduZagq+ql79Tzn+Zi86+/L4v8ANMx+tS2x5rxsPZLdL1zLYFWsbKPtRzLmtP5P0JdDFRlonr7pup4qlN2Ts+D0+nHuuQlTlHV7CSACwQAAAAAAAAAAAAAAAAAAAAAAAAAAABhKSSu3ZLe2ZFBtDFurLJB2gvafMp4zFxw0LvWT0S4/hbzbSpuo7bt5vr49zbVPSK0cufhyMsPhv+2MLQSW60UTLnJp5qsvaVXf1u4Ls277vU3SkorLARgl3mVzByPMxcjNRVkarGzMLmGYZiXtRlPJ00+4h18G9605NE6LM2yMqUKi1Xr4kozcXoQMLtFxeWr4Kf0ZbJlTjcMpKz+D5GnZeMcX1dR90WzFHFSo1FSrO8Xom9qfB+D28eKlOkpxzw2714ovQAdcqgAAAAAAAAAAAAAAAAAAAAAAAFZtjE5Y5Y+1Ir8JStpxe8xqz6ypJ8Foibg12m+R4+tWeLxObc3ZfKvPVnQS9nTtv2vtJkIJIxkrGTka5yOnUcVGyK6vcXFzEWNKkyVj24uY2FiWZgzUjYpGgyjInCo1oYaNs1dWKfHUr6r2olspETEx7XiYxMVUhZ7ydGTjIlbLxWeOvtR0ZPOd2fPJVtwkdEdDo6s6tG0utHR92xmrEQUZ6bHqAAXzQAAAAAAAAAAAAAAAAAACPjJ5YSfcSCDtf9FIrYybhh6kltUZfYnTV5pPiU2Ejpfnr5llhFoyFhl2fL5E7DM8phko1I/DyLtZ3ubmeWPTHOr2bV2m0m1dpWu7fFeZ0XqV9h7Y9sMyXFeHHyPFfNu0stNL8df6ZNRMXPcoymw1Qk1fNz38Ny7tCWQZhlPLGxo1xmnezTs3F2admt6feRsZueo0YlEgj1+PwFTqko9YrcVo1Lk0dHSlmSfNI57GLs/1zL3Au9OPh9Tb0a7V6keKT+n/AEliV7kX2kkAHbKYAAAAAAAAAAAAAAAAAAIO1lelLuVycaa8M0WuaNGKpurQnTW1xa+qJQeWSZRYWWnwRLpSK7CytpybiS4SPFKdkpI6NSOrJzkRcbhs2Wcf0lO8orTtK2sHfnzMoVODNikX6eIUtUV3EzoVIyipQtlklJWVtGjNz7S70/S1vmysw1TJUlSfszTr0vBtKpD4SkpfjXIlV52yPgppP8ScF6yRZVXUhYmZjXTndN/rS9JNfQwdVLVvRavwNWGl2IX35Yt+NtfUz7W4yjGSUY9lLPJqEFwc5bm1yWrfcme4PDqnBQi29W3KW9ybu2yJSqdZVlL7lG9OHJ1Gk5y+Cyx8c6JjmHPcZSNubiRqktGJVL+BqqSNDq5mkjbGJGxb08i/wUbQiu456p2pRiuJ00I2SXKxe6LWarUnwSXj4GMS7RijMAHcKQAAAAAAAAAAAAAAAAAAAABze0KWSo/dnu8T2FS+vFby12lhOsjp7S9k5+FVr9paNHkMfhXQrNLqyu14rufJo6VGSqQ+K0LB6iFS2800qq+HyM5HJblB5kZcdzNW1YNwVSmnKrQkq0IrfJJNTpW5yg5RV9LuL4EqE41IKUWp06kYyi1ucZJOMk/J3NNyBs2o6c6lD7sX11K/+FUbbj+GamrcIuBahik17y2cCDgSk3Ko6UrumoZsrlKV9bWd3qu427SxTpwcopSm3GFOLvaVabUYJ24Zmm3wSb4EanN9bJ/qJeb/AJGhzdWvdvsYZabv/YqR1fc40pf7z5FieJV1e70XPtDgWWEoqlCMMzeVayds05N3lN24yk3J97Z7Od9OBpTNkTTUqyk7GVFIzRqr1NbGVWoorv4IhNuTyrWUtDZGVkbIQvqTtkUs03P7sN3jwOgIuBwypwUePFko9TgcO6FFRl1nq+17u7YUK9TPO62bgAC4aQAAAAAAAAAAAAAAAAAAAADCpuKXa2A31Ib0u0uZenljRicPDEU8k+58HxXrVaE6c3CWZHGKfFGccVbfuJG18N1c7r2ZfMhxg5bvU8ZVi4SdOotU7Pz8jrpRnFS3MlxxEXx48SLj1lnSqr7tTqZcW6dW0bf6ipP4Hn9k715GjGU3TjnUtzgrW5zj387GulllNK+1/eyISpxSbTJ8Pbm2nZRi3x9m9/maNkxfVQlJNTqrrppvVTqPO4/C+X8KI0sS49a3O6hSqytZ8INlklfXnr58CxiFCME4O+7duX5NeV5tTZmE6mVHiiaMQ9fBGmk9Sahd2NdSq2+cnuRe7IwGTtS1m/RELYWFzPrJLRbjokjv9F4RTSrzXyrx8uG0r4qrb9uPf5HoAO6UQAAAAAAAAAAAAAAAAAAAAAAAAAACm6RL7NPk7/IpcPLf4Iu+ka+yvy/r6HOUJ6vwPI9LpLEy+KX2OthFeh3sm5iHtGfZfdlfx6yCXzNuYhbRn2X+D/lgcugv3I9q+5tlHRnlfEdmv+6rfwMtlLVrlJpeG/6nN4l9mt+6rfwMvYz1l+19EWasm4K/rQxl94lxkR8a9H8D2EzTjZ6P4EKex9hmMfeR0mwl9ku/8kWRW7DjajHv/JL6FkexwK/hqfyr7HJr/wA2XawAC2agAAAAAAAAAAAAAAAAAAAAAAAAAACPisOqkHB/eVjisRhJ0ZZZJ8crTvePNHenK9M4K9CVu0pySktJWcbtXWttF5FDF9H08S1KTs9l1w+JZoYmVG6SumV1nyl5EHaDeXc99NaJv/6QLnHRtTunK+T35cvE5GE5+/U/zyKC6Cimmqj/ALfyb3j7q2Tn+CXjJdirpL9FV+7L3GWkKm/x+iLXoxSzU7ybk773Zv5FzKMIazlGC5ylGHzEuhM22p/j/sZ/Xq/U5/g5iMnwUn4K5lhcBUrSSyuME+1KScdOS5s4PpziI1a2SlU6zNO2WFRzi1fVaOx9a6MYJ0cPCEoKErXlDS6ffbibIdCUo9abfLzIvHy/pir+uwtKVNRSityVkbADspJKyKAABkAAAAAAAAAAAAAAAAAAAAAAAAAAAAoulEKMqcYVnKLnO1KcZODjUSbTUk9NL6cVdF6UXSqvTjQar089Go1CpJxc4wvulK27W1pcHbuAKqeyUqaU8RUnp7TqTjpb9pnKV9jQc244vJDTs55yffrnR0EqOz401Z0pK11mjTm/D2TmK9DZ7m5OcovTsU4wjHyyAHV9H8DhoQfWYmE03uqVLRXwlN3LPELBKE8vV2cXeVOk5LxcoRZW9FquEjB9VGrJt62p1JeqjZFzjMfDq5/YVXDK7tqklbwlK/oAfJMXWjGulQipycrRlOMoRiufa7Xoj7bsqE40oqpKMp5VmcW3HwTe9d58VxlWc69qMHTjKXanLLNpeFkl6n2nZFJRowipudorttWu+OnDwAJwAAAAAAAAAAAAAAAAAAAAAAAAAAAAAAAABTdI8ROnRco03Uhqq0Y2curad2oveua32LkibQwqrU5U23HPG2aO+L3prwaQBysdo0erTp0KuW26MHa/mcrjNo4ZTfWYabqWV8zs7cONjqJ1qtD7Gskpa5J2vCffGT+W9HN4/GzhNu8bt73CH5AHS9FtpQlCXU4Vpp9rWml53v6F1isTXySy0Kdsr06yTk+6ygl6nO9GtrTySlKSve26x7tfpPOEW1NRsvdi/mmAcLtGNSdd58tGGa81TnKLtyzOT+h9n2KoKhBUr5FHRyeaT5tvi7nybYuxK+16/W1ZTjg4yvKo0o52nrCmkrPvluXjofY8Nh404RhTiowglGMVuSQBuAAAAAAAAAAAAAAAAAAAAAAAAAAAAAAAAAAABoxWGhUi41IxlF74yV1/J95xm2ugjnd4eu46PLCt2kpcLTSvbxTfed0AD5xszoXjIxyzrUo66dXmmmud2l8ibs7/AMfxcnPHVP7RaV4Uo5oUlFe/xm+7RdzO6ABqpU4wiowioxikoxilGKS3JJbkbQAAAAAAAAAAAAAAAAAAAAAAAAAAAAAAAAAeAHjkjF1UjJxRi6SYBqli4Lia5bSgt8kbJYSL3o1y2bTe+K8gDD+96Xvx80bI7Rg90ka/7ppe5HyRsjs6C3RQBsjiovibFVTNccLFcDYqSQBmmeniR6AAAAAAAAAAAAAAAAAAAAAAAAAAAAAAAAAAAAAAAAAAAAAAAAAAAAAAAAAAAAAf/9k=;" vertex="1" parent="1">
          <mxGeometry x="647.52" y="60" width="70" height="70" as="geometry" />
        </mxCell>
        <mxCell id="WroAq-mQZTox9uwcmQEj-27" value="" style="shape=image;verticalLabelPosition=bottom;labelBackgroundColor=default;verticalAlign=top;aspect=fixed;imageAspect=0;image=data:image/jpeg,/9j/4AAQSkZJRgABAQAAAQABAAD/2wCEAAoHCBUVFBcVExUYGBUYHBgaGhoXGSAhGh0dHBkZIBodIx0aIywjHR0rHiEcJDYkKi0yMzMzGiI4PjgyPSwyMy8BCwsLDw4PHhISHj4qIyUyMjIyNTIyMjIvOjIyMjIyMjoyNDMyMjIyMjIyMjIyMjI0NDI6LzIyMjIyMjIyMjIyMv/AABEIANAA8gMBIgACEQEDEQH/xAAcAAEAAgMBAQEAAAAAAAAAAAAABAUBAwYCBwj/xAA6EAACAQMCBAMFBwMEAwEBAAABAhEAAyESMQQFQVETImEGMlJxkRRCgZKx0fAjYqEzcsHhU4LxFQf/xAAZAQEAAwEBAAAAAAAAAAAAAAAAAQIDBAX/xAAqEQACAgEDAwIGAwEAAAAAAAAAAQIRIQMSMQRBUWGREyIycYHhodHwQv/aAAwDAQACEQMRAD8A+zUpSgFKUoBSlKAUpSgFKUoBSlKAUpSgFKUoDFKzUO7xM4T6/tQEqtN7iEX3nVZ21ED9aruJvOqMVdQxwpbI1HYR3+vyqv4Phzc1FnAce8TkkjfrsDj0rj6nqXpUoxtv8ImMW/Q6VGBEggjuNq91yP8A+meHdQo1KxbUq9l3cD+TXUcNfV1DoQVIkEVp02utaG6q9CrdScXyjfSlK6CRSlKAUpSgFKUoBSlKAUpSgFYJrNeWoAWr1WAKzQClKUApSsE0BmleJr0DQGaV5JjJqLd4mcL9ahugSDcExIntXs1RcRdIcLiSCQM6miMg9I/H8K0cz56yWla3pOo6dbHygkxkdwdx0qu9dyJOlZbcfzC3aXztk7KPePy/faufsc/tFbjQLV23OpHJGJgHAljtECc4rjX514rqAHuO5zcGYMMVyBAWAMHsSK98dxSqNdxXNw4zOkgArmIyNWBvlvWs3NuRitSW5JrksOZ88uXh5ZVYB94qgYDIVgA5b3s9Nu4MdOPIRVsIVgBVUsPNE5JOA7Y2wSd8zVE3OglzXd9wn3FERncKMepGx696uHRrjuqgEycKIkTAgHOfXvmspwUsNWvUak5xktpqv85sqpuNdHoJ/rK46Fdw04IOKvPZ/mty2FuaWKXDLLpgEmPcHxCYI/t37cRzHh1F9nuWwXTB8XIkDBYDDDY5mRH42/NOY3Bw5vq2i24tlramcSFJUwNMkjyjov0txW00lHdl4f8AJ9d4fiFdQyEMp2IrdXxz2U9rxYuFMm2wDaDjUpHvpPUbEV9M5Nz61xQbw9QZd1cANHQ4JEV0RlfJZX3LileJr0KsSZpSlAKUpQClKUApSlAeS1ZAoBWaAUpSgFKUoBWCKzSgPMVru3dI9a2FgNzFa76SPlRgrrvFgsAzbmB2ntO0+lbgtVV1FusHtMt1ZVXQsCAMwy/Cwk/Meoqwt2GAUFyYnMQT8M9yBv3rG3ZZVR44ywrgKwO8hlwVI2IPQ5/ET8jjjVspbfxNCW2PmJhQWOJn4jjPpUPmvOxbY27a+Jd+HZVxMsflmB6TAzXE+0ntIxstbuXEZg0+5jVGFVYhlEmZneJIyTZDaR742xa4TxjaZDbUqX8MxnpqIHRicDvGJrRa4pbtm7hSdPfaQdEzhkbfGQVkZFVXs/xaXbZlFWGEIQSX31g/2gBRE4nEdLrhuBt2mYpl3bXqxufvHTJMZgbRkTMnOWDlk1F4We35Kvg+WcPYQNxKNf4m6P8ATYSBO2nocQQ0/KKuPEe3IZUKXVZSzEhlx5QSgJECcKc4zW4vaXw7x8J7jwvhyWIWWFwjcWzqyZESN5xRLduyoFxmus2oW7KyTByACQCwCkDWegqknXJvF768ogJwSXSLlxmvOhNtiXiNB8sp7ojcAz7xJLSDULnwAt3bbEspKkxuMggx0bHyMfiJvOeXXkIay+i4VXVDD3Y2adyuYOMA5j3azhuXpbDyS7XPfdt2+vTf1zWiaawZasqVdzmL/DPbPh3CYBJVl95G+IT17r+Bg10fszz5rdwBzpuAYZdnHxrO/qvzrW3B+UpcH9JYCXTjT2RicRnB2EsSCYqk4jhih0OCIaQRhkboVnrESpzG4FaJmsJKSPvfIueW+JWFYeIo8y7f+wnp+n63QFfAuR83dXUFtF5PMrLs4+IT9CtfavZ/mJ4iwl1l0sZBA2kGJHod6umWLSlKVYClKUBiaVjTSgPVKUoBSlKAUpSgFKVC5r4ng3PC/wBTSdMbz6etAVnM/azhbD+G7ktMNpEhfmf+BJqw4Lmdq6zLacPpiSAdOezbE942riOQexwcLd4kkK0FbYOTO2o9J7DPqK6bn3EvwtgXLFpStvBUY0qcAiMaQYkRt2iaqm+SaKD/APodxg9oeIdDq0JONSkZ9SdQj5GqPh/ai7fDcJfc23C+Rh99ehJ3bsf+d6qOf8a3ElG1F7oJI1fgWQ9NMAmRgAHpNRblpL6YJS4h8p+8jR65/cVm3uM/qVNFjw3NH4O8htuxTSshwcbhkJ2ZGI8pGxg4Miuo517ZWyttbLXVcw76EB0jICEnqWgSMdc7Hg+GPjFkvahxCLGkHDiI1DV907/MemccdwzMAlu4h8SU0/f8gwSuenlMD7s9SaqsYCltwzfzLnl2+7mcMfNpAC490EjciB1369KjcLwZcyCJzLvgCPur2PoP+6zZskHSymV2SCNYBAYKe/8AbPXcTIvOD5cQQWmSICru67oxA8rFRMxAwSelCspqrRFfllpltm3dUMFUeQtqttmVM942ERA6EE2vA2W0hrwCXGyAH1CVMSwjY7xHTplampwKWQWuElwcW48rEdDI8w/uGMETkGq65fljp8oJwN4HaSM/Oqu2c03KqLGxwgtgt5IbS0/KZMxJgxj0jrnN64bf9VSwItsLecw0EnQfKQ0bH5zPvVQukb1G4/mi7W1zsw3UR2MyZqNrZGn8Ru4nnhrdwF2uXC7OQT2xMfqasOG4J7kaQMmBJAk9hJydttpqFw18Os7dx2/neuktPFqZCIttSrKAbklocbggFtQ7YHerPHBLUm3u5KluDuLMBbijDqvm9MjePUYql5pwyAqjMNDH+mcymZ0MSdJEnBJAkktMCu3tXDc8MBw9plIIaBcZkk/7tUxBBI2zVLx/DB3LeVkyWCspI1b4HQExPpUWyd0o5RwPF8O6yjAyMrGCrxKlSdpEYIBIOwxXbeyftFc4bQWYXEeNYXYnbUo6H9aq+P5czTbQalElWGXVCT5Z7TnudpgCKrknLriX01H+mu2cPHUeo/x1irKaaOj4icbr7H6B4XiluKGQyp/n4VIr57ybjn4eHU6rbTqE4MdR2ON+sgdq7rheJW4oZTIP8gjofStITUvuTCd4fJJpWKzWhoKUpQClKUApStdy4FEk0B7qNe4oDC5P+Kj3eILegrTFZufgmiTwvFknS/X3T39PnTmHMrdldVxo7AZJPYDrUfQDvVff5V4jHXpcxMtufT0j6f8AGGtrT042lYcW/pdfc4vnntRcuWjaVdCrcAIIGoINeiG/3BMjMzmKlcq9q7vhtYu6bhKkI9w4iDqV/jx3InMmo/O+XMfEtWTHigMRAIlTPvHYHbcbntB4U8WbVxlu6hAgg/cIJmRGZEfT51GhrLVipLuVipLEuUTtBWVLg6W8rruQCCpg/e6fhNaH4n+oWtx4iyGEyHXfJOZ3M5jzEmCAKnjr966SlhTALBiN4WdUnoIz8qn8t5a5saz5WhSmoDdIAORmVAxsZH47tEt0Wt22t9FuW2K3FMq3VT1Ujt0Ir1bvrxDA3ALfE2yPEUKIYdHH4/eHfvVXw99wSUAW4MMjTDb+YSZYSCZkkRcLECBXpbnildTeHfTZ0G6/eEHfHQzG9CskpKjp7R0wVxH82PSrdOY27ajwkPiEAktBAYGZA77xECGggxVBw3EBpH3hE9s7fjU22nfr9T+1ZvBxSk4C5cLGWJJPU/p8q0XrqoJY/vU65bQKI1FjmZECAZHr0/m3LB2YsLki4u43+RH9p6H/ALqY5LacN+bJN/imuSNl/m9akH86n+fzvXlRPQRW5ELDG8/WN/QDNW4O2MUsI8o5VtS7jJG4j1q/5bzZgAVggT5WAMahBg7ifQiqd7gTYAk+mB+O5I/7qPw7EMCsCfp/8qKsz1NPdlcneWOMYFXCqLelfOwmAT5wGOceZdIzJmKqL3F4IQaZ3JMmO3YDbbfvUTh7qPbV1aSZxGMGMHrkEfhU2xy520mCFMZwWg9Qsyw+VUOWTk8EXhkYtCsQW8uDEjt23/5qdwvL/BKlVPiEmIh1ecbgxjA7j8TMjhkVWNu7bTTBlhv31BoJbGBEZia0Kz+GqFSDOtcEli0AGN9hiKo49yLkqafHHoRTxbW7jC4kKDIjA1epH3tWqP8AZ2ir/lHNXRlM+UwpDn399OQIDhRuTnGe1Rx/EW9DeJo1pB8Pso0so/uDH16HoTM3lXAaw2hz4ZeFVCScAMuf9rLkf8SazmtOO7x4N4RcmqO/4TiVuKGQyD/CPnUiuR4NW4YkgPByyMZ1dyCfvetdVauBgCNiAR8jtWvT9VHXTrDXKfJ0U1h8m2lKV1AxSs1D4/VAg46jvUN0ge34kbLn16f91FZpMmJ/nWsIK9AVm5WWo1kV6Ar2FrIWqg8gVh0DCDsa2Far+Z81t2B5zLxIRfeP4dB61EqrJJyXtLY4q3/TtERdJ87AeXGwI9IEHMjfJrj+acltXLBuW2YXLUrdW4ZcnOrBjcyYA29c11XHc3u8Q4L+W0DAtqMycaj1Jk4PTeK8WeXBSzKdNwgqfMPNgkSwyrR1G4O+mTWMIpfTijKU2nk4vlVi5Z13E1Q6usNEsrjzHQDmCJEzhfSpTP4jojBtatbAA6gzklcaGGqT0npirB+BY3NBYLbVTIAyCD2wM5G4PkGwgix4ThwxOnaD5jsAGUlWgQQZBLdyCDIga7jO6zdlXzDky20AtTIDOijQ5EkZacurAZB8pgnTmub47h2d9aKyXDlU79yGOS5OTO8mOgr6Le4cIGI1a2I1GBJ+fUDt6g/hU8bwQuY2IBg9jNVUqOaerKMvl9ir9lLTJbdHaWLhiDk5B37dPXG21dGlpyQIknb5evb/AJ/GoXJ+UeGCztBbp3jO3yyT0FWXjBss4VAiggMMx3zA7Z7+tOXZnFS1PmkjNhFdStweZZK6N2A3/wDXIz+xqNxfBq+NNsXAMDSeudJf1/XNS+FcIdRDF2kNrwVnMCT2EgmAB22Eh+ItGIJZ2yIXqBvK4b57H66bJ0bpVwcVeQK8ZxBgxIBEj0Pz2NZu8QSIAgR+O2fwqz53wfiPqQBHUALJkFQMKxHQ7yNiZHUGhVnY6Lds+IMMGwEPqevoBMjO2avhnRDUTRsu8TCwxxIjEsT0AAyflU/guTtcXVd8iMCUSfejcO4OMfdGO8iRW/heT+GBccanONbAA/8Aqv3UP+es1MFw6dE+XeB3/fJqG/BnPWrCJ/AcC7Wio0raTIuP5VEbBQOuw6/pXrheZFZNwsxxpAwsfUdhmDEfKPP2zxCousdKiEVQAgIiJAIx3is8bYS357h0AhAAFJGpxCfIFumYwdqoZpuTuJ64YXGZXJVQo8uqFXqT6ZPfvvVdx/MXYm3aVlvIrssMJB0mCJggqVJj5QO+vieYXL3i2gfD8NWdToI1IircKzjBzEjI079IQ4q3bbh7iqGuaLofTgli162pPY6Sp7kAVNWbw06yyRavKtzh+KuOw1XCLgJkBbdxdoEkEMe5P4kVs9ledvabQBChix+IMbagiDiAE+hJrn7Vu5dGhJZ0uadJB0rtrA+cDG/eImvoXsv7Fwxu3sF8kRk/sPQY+e9U1IqUdvnwWepTqPP+5LWzducXGkELEaiIAB3gd66m1bCqFGygAfgIrFm0qgKoAA6CttT0/TLSt3bfLL23yZpSldYFReOs67bLJU7gjcEGQfqKlV4dQQQdjg1DBzvJed2eIa5btuTctNpdWXS3o4U50k49D+FWsV879sOVvwVy3xfDahctwNW6vb2K3BuSBAJ6iDuMdl7N88t8bZF23g7OhOUfqp7jqD1FZFi1C15v3UtqWuMqKN2YgD6mqvnftBa4VSXILj7o+U5j9BJz2zXy3mvtJd425p1ELsF9DuI+6PQZ7loEUcvBJ1fP/b9STb4MgnY3SJ/IvX/ccVTcs4TiLlyQrXHuZZif8k9B6/Sns57B3br+Jebw7QMiPff5DYD1P0r6jwvBpaUJbWAPqfmetU2uTByfE+yjCzNt5vKS0DCnM6BOfxNUL3GR9XzBBHWcgj55+dfTiKo+d8rTzXhb1soJZBPnEdh96Px7Zqa2q0Y62nKTTTONPFatIuCQCCYA6ehxtiNum2KskugDTakgRLR5YAgROS2nBXO2MbQDwOqWSQNIYA5Ok7+hgyPwrD8Y2nTbAUxkxAJEbAZBOJ7x33nDOWPhsmcSVVQGcuonygxJORtuPdH0qPaRpNxUERq0mdpwR8vnVdf4lUzucRIEk5E9hgnG30FbuV8UkEFWh2BYKcqfdmCYKxE4kxFRWCfhp5JDqSw8X3WBJiPN1jV0HptJz3XfqAi4AqAAhJzJjDQNgD3mY2EwNfFvBKfc6iQRq6kadh1gGN68aTADXAGZYRYJZ1XMkAYA2DH5d6WRF3hdjUl4hijK7MoD+IzaiZzMxpCknAzP6bVZgupAYiGYklgesk7ycz6jbNaUWQZXaCJEhcxMHE5YD1at/CghigIGoYYrv069CD2mfXBkN2RRWdiDvH8ivTWipKkHUN/8f9Z6yKk27aoPN57hjSg9dp/b5d8SZpWeEstcGosMYA9BH0Gf/grU3Dvp1kQvrudthudx9RUsvA8VlDLgQuFGlQYI6tGM9vpUcZzZ3h01mxdMyyicZTOwYKxJAPXrmoLx092ESeI4q3agMUcPIV1bYgap+WNGepPYxG4hbj+Pb4g/6Si6gVzpH9Szp9CCjjPT0qPd4dLCcVauMGdbi6Dpzi5dV2HUeUiR0movEcU126puKQLlsYXbSiIkMTjSdIMnrUqNZOuMI6as3cRzEs1pUaJtLZZmxMIy3RJ2wd698k5Fd4kqqqysrli87jIE9pGY3+W9Xfst7GPdCNxB8iSV8sEk7x1HQScwOlfTuD4NLShbahVHarxW7jgq5Snxhef6KbkPsxa4YTGpu5H6fr+5zXRUpWkYqPBeMVFUjNKUqxYUpSgFKUoCLx3BpettbuqGRgQQexH+DXzLl3JLvLuPULq+z3CEdl91kY6UJjZlcqSdxnoa+r1A5nwC3lg4YGVbsR+oOxFVkrB8c5pybiLvEvbCs7K5TUcKJJKyfdWRmK6nl/s3w3LlS7fHjcU502ra51OdlRTue7tgDOK6PieX3GF5rUW71xAJnC3EM2zMZXPbI6VB5bwxu8S18kJxCKtu7bddToQD/pMTCI+8wZjvNc9VgmPqWNm94Cm5xd2bt0iLaamVYBi3aQDU5AmWjUxzgAKtzNVt7wOFV77wCY1OZa4xJ8qDdiSTCovUwBTgL9zQ97iStlCAVtsR/TQTm4+2s9QDpWABOSZssWMVjTWWuKF1EgLEzOI7z2iuD9ovboe5wY1CdJuxKz10dGP9x8vzo5JAle03AotxSrwr6tVtY1atPldcgxPSQJM+lcdx/FEMyAAMPejpPYDEb+nSo3DcVdF8XHL6iTl8+8DGTv1x6Vacbye5dtm8qkaTi4es7g91J3PTFQn3OeVb6aKfTmTk17UkZG/6+nyrzbbfUNLDBB3n+deteF1XDptiehJ90fTc+g/xVzZ0lk6Dl3FK2GVYMiSTKGMYAIK79M4+VTbnBAzqkI3lCn7pMHSQeh3jY96quXcKLQLajrYEFjIjeCII0x2/WTUi3w4QJb8wmI1BtjnXJ6Gfmc1k67HDKUf+e34Jek5Pl8MYNxi2pmxKrGFQLKwJ3neJ9iLnlQDTg6m+4eoBmSOmfl2NRL/DaJBnv86zaQ6GDMYADhREZIWc75gED/iKlFd29m2yhbUZgidVwmcQQQAPeESf/U1F4zjrdkF7bC4yEsQ0qSNwrfODBGd8VD43mpYObAZHtnzhfdAOlbhA6IQwHpJ9I8WVS3etXLreS7aYup2Erft6SB7w1AQfWpo3hpWYsgvesO0G1ecWyJaT/VRXB2IPmBmoN/ilSw9pQTpueIW6BVR7Z/8AaYMehqNxHFXHsqApi05AA98tc0BhHddIIj171f8AIfZe5xDswlbL6ZBiIHy94k57f7qs2katxgqXJWcNwl2/eJUeIbqyziZ1ufOQO0ddp7kRX0X2X9i7dhVa6NTiIBzEbZO5/mNq6DlHJrfDqFtjPVjuas6tGDlmXsQouWZe3YwFAEDAr1SlbGgpSlAKUpQClKUApSlAK8kxXqvJPSgPL5ECuUvq9y4xQqvH8Nuswt60xlQf7WEZ+44PTfrQKruYcGSRdthfFQMFJ6g7qTuBIGekdRINJq0SjnLNpuK4i3xIAuJb9y3ccp4FxZF2bYU67mRBO3SAQakc74nhuG/q8W/iuJa2jRCkfBb91YP32kictUbwnvkcTwx8LiFITibROCQCBMHcYh/vIdiQsfKuO4u7cDm4TcLEFy2QSsxPxAdF90dsRWDJsuvaH2j4jjHNvyi0DhLbhkbygg60MOMxjEqe01VcuW4txbWhrjA4teYwx9B1/nSrb2P5RxF//RTQpPnv3Mx6IO/y+or6H7L8t4ayzpYVnZMXL5iGefMgbuOoUQNiZmoq8DnKIvK/Zlrji/xkF/u2hlVwMserYG3brXTtbEaYGmIiMR2jtW1q8VKjSwSfPPaj2cCOLig+GTEiZ6+Ro6TkH5j5xbKC2Ea2RjZQI0nII0jptBnv3x9IvW1dSrCVIgg1wvN7H2S4hbNp2hGMbxOkz94AMe3lnaYOzm1YTXHBV8dbW4Xk6GjUoUdQYAM7JMgmD2A2rXyjjrikpc0o+wYHUR5cA5ACmQdpjT8qseY2A6eKmDJ3PvGY3nzH/ETGc1X804EXVXxC1sk+Zhh3WDGDJAJ3YnVASQIAqE13KQcVHJM4u6mgqzFbiwNLA5Bk47ACCNpDd5FUbvc4i2bi6FNt1D6RA83iKrAHEYz6mnF3ovKqmEsxCjaIDKQeo3rbxPE+fidELbuu11TgEp4jtbZROJLe6RmCKtFGkNOKVnq94du5d0Af1rKKoGYa7atMSdzp1g49emKqbQuXxbKHWyXCmkgkKgJLJjfzmQB3JxVlyfkt7i2tFFe2U1as7atwSNoHQZyfdxX1LkPs1a4YAwC/c9PQelLbdL9BzcnUffsc17New4DG7xAEudRWNyfTYD0GMdd67+zaVAFUAAdBW0ClaxglnuXjBIVmlYJrQsZpXivQoDNKUoBSlKAUpSgFKUoDyT2rIFAKzQCsVmlAUXMuAC3DxNtCbgQoyqYLruBEhWYHae5EiQRw6clteJxL3wxtW4voAPetsXLggZMAiAD0jrX1So3EWFKmVBkEEESCDuDO4PaspwvI5ZyXN+P1Nb4Wy62OHdEZrqkBntsf9OyFzqIwWGVDAgEmRbWLdwBbVi2tmwg0gkecrGyJsn+58/29aruEvLwxR7ZDcDdPlPWw7MQVPa0WxH3GwcHyy+d84ZGWxwyh+IcAyw/p2kJjxLhxgZhQZYiMb1QuWKcQgfwvE1XVQMQY1aZ0h20iBJmNpgxsY3VR8GRZDW+GRr90tN245hWcjLXLkQTgDQgJUQNIAq4slyoB0l4GorOiesTmoB7do/aofNeFS5YuLeUNb0klfkJ36VL0ENiI6k7/ACHYVXc4uqAQzCGR1CRklkaST0ULJ26fhUtUskN4ON4rgSmnzYY+UHGCQJA6jbPpXWcDygMsjT2JbJJiuIsl3t6AyRZUHVcJ1vggCd8DHb0q65NzS8+lFQsSBkEj6xvXmdVByaxaXKus9jHTcdJ3VJ8dyv8AabkyqwdPK8sogSDv0AMj0g7gxuDJ5D7HNedb18aQoCqAIMDt29Tv8tq7Pg+UCQ92GcbDoP5/O1W4FdfSaM1ppT/fuJR3SbfHg0cFwaWlC21Cgdqk0pXekkqRolRmlKVIFYIrNKA86ayBWaUApSlAKUpQGJpWNIpQHqlKUApSlAKUpQClKUBzHE8J4Ny6XKnhL4JdHHlS5ABI7K4kmfverVT3ltcM9u3xg8Sxtw95jPlMf0rmYeMFZkMB3Ge5vWlZSrAFSCCDsQa5S3wBtMeEup4nDN57LE5tshDaDqOwPmUjYKZEA1lOJKZK53zM2LY8O2blxiLdq0mC7HoTHlQDJPQCvfKbV9ZucSy+KyKptWifBSCxkajlzMFv7R8zv4zirVlTfuMFAT3m3CgSQPpJjePQVw/OvbS5cAFu21oENFto8RgdOi40YtpE4Jk6h2zTgSlSs6HnXtAlsMouAMMlomNvKo2J9TXK8u56Llw+OwCEgnUPMQSdj6CPn0rxyjjPGtNauW/FusTpVVhR6lusdz/iup9nPYlLYV7/AJn309P/ALWfzTxWf4MZanzJQz58IgcB7Pm+5YLFuRBIjoJMdJOfxruOXctSysIM9T1qUihRAEDsK91tDRUcvLLKCTt8mazSlbFxSlKAUpSgFKUoBSlKAUpSgFKUoBSlKAxSozcbbG9xB82H71j/APQtf+W3+df3qjlFcsEulR/tdv40/MKz9qt/Gv5hVwb6VH+12/jT8w/nan2q38afmH86H6UBIpUf7Wnxp+Yfzt9az9rt/Gn5hQG6ovG8KtxCrTnqCQQehBGQRuCMitn2q38a/mFY+12/jX8wo1YOU9peRXmsW1tEPcthV1NliAB5oOC0iROAZO8Ecty/2RvXGClGQTLuxkknee/X6/hX1M8Unxr+YU+1p8a/mH86j61lLSt3ZlLT3PLZB5LyO1wywi56sdzVtWj7Xb+NPzD+dD9Kz9qt/Gv5hWiSSpF4xUVSN1K0fa7fxp+YVn7Vb+NfzCpLG+laPtdv40/MKx9qt/Gn5h/Oh+lASKVH+1W/jT8w/nUfWsHjLf8A5Ez/AHD1P6A/SgJNK0farfxr+YU+12/jT8woDfStH2q38a/mFY+12/jT8w/nUfWgJFKjnjE+NfzD1/Y/Ssfa0+NfzCgJNK0fa7fxp+YU+1W/jX8woDfStH2u38afmFY+1W/jT8w/nQ/SgJFK0fak+NfzClAVHPE1XLSyYIeY3MAGB6mI/Gqvi7ahCy4jsTByB1YzvIOMDbIq+5py3xdJDFWWYPTp+PTeq23yK45/rXMDopkn64H0ryOo0Jy1HUbvhlWiwu3m8Qqt5F/tY5jSnQiMEzjcONsGsF7mJv257CAD6CZOxHfcYNbeI5cjMWKK2oGdRbquk42EgAEgbAdhWpeT2xtatzt7zbRH6V6yLHhL7EsG4i3sw8rAQSAQduxnfbvvW5fEEFrywCZ2zG42xEbfM+g8Lye2BHhJ+ZvSPxwPoK9DlSDAtoBmYdhvGrA+Q/KvYRIJ6XlYwGUkdAQTW6q7h+AFsyiIpAIEE7EgkfUCpU3OyfU/tQG+laNVzsv5j+1ZUvOQsehM/pQG6lKUApSlAKUpQClKUBiovE8Ej7g9MqSDjbbeOnapVKq4pqmCFwllgTqZiRjJwfw/m/4VNpSkYqKpAzSlKsBSlKAUpSgMVXcE90udYbTB3CxMiI052nerGq3geFdXLMwIIIwxMywIMEYx+tYzT3Ln8As6UpWwP//Z;" vertex="1" parent="1">
          <mxGeometry x="300" y="500" width="242" height="208" as="geometry" />
        </mxCell>
        <mxCell id="WroAq-mQZTox9uwcmQEj-26" value="" style="shape=image;verticalLabelPosition=bottom;labelBackgroundColor=default;verticalAlign=top;aspect=fixed;imageAspect=0;image=data:image/jpeg,/9j/4AAQSkZJRgABAQAAAQABAAD/2wCEAAkGBxIHBhUTExMVFRIXEiEVFxYWGRkbHRoZHBoaGxgZHBUaHCgsJB0mGxgaIjIhJSkwLi4uFyIzODMtNyotMCsBCgoKDg0OGxAQGzYmHyM3Ly8wLzc3NDAtLS0vLS8xNy81LS0yMjItLS0tLTUtNS0tNS0tNTUvKy03Ly8tLy81Lf/AABEIAOEA4QMBIgACEQEDEQH/xAAbAAEAAwEBAQEAAAAAAAAAAAAABQYHBAIDAf/EAD8QAAEDAwMCBQAHBQYGAwAAAAEAAhEDBCEFEjEGIhMyQVFhBxRCcYGhsSNSYpHwM0NzgpLBFXKistHSFjRE/8QAGQEBAAMBAQAAAAAAAAAAAAAAAAIDBAEF/8QAKhEBAAICAQIEBgIDAAAAAAAAAAECAxESITEEIjKRE0FRUoGxYfAzceH/2gAMAwEAAhEDEQA/ANxREQEREBERAREQEREBERAREQEREBERAREQEREBERAREQEREBERAREQEREBERAREQEREBERAREQEREBERAREQEREBERAREQEREBERAREQEREBERAREQEREBERAREQEREBERAREQEREBERAREQEREBERAREQEREBERAREQEREBERAREQEREBERAREQEREBERAREQEREBERAREQEREBERAVM626mudG1OnToNpEOpl7jUBxBMkkOENAEq5rNPpTqCnqlMEtG+3LQXeWW1WvAd8HbE+k5wr/D1ib6mFHiJmKdHi4621CjRa7ZS7/IXUK7G1MTDHufkn0BifRQzfpSv6lVrQy3lxAEsf68f3nyprqzrOjq2geF4dSkXOaXPeAGsDXBxNN4Pe7EN28zKy+4uBcOLmksLiSC2JaTkQfha6VrNZ8vVnmbRaPNOmk0euNRdcNa76s0G7FqT4dTDyJJgvGB/NfGr17qTbYPaLZ03DqAGx4MsEky58R+KzVznvJ/a1Mj94Yd+/wD83yvpRbVq1A1tSruMBoDvt8bx/GfdV/Dv9ifKv3r/AGv0i6lcVmN22zd5IaXNdEt80w8kRHsuij17qNZtLaLZxrbtjQHT2EgyXPA9CRnKzaXNdIqVcM2iHRB9XCBhxhA144fVxT2Du493DGHH3+U4W+w3H3tDH0j3/hhxbSAPB2OgxzB3roZ19qDmPOylFON8sILZMCQXzys28Co6k7bUqA+FsAc6QDju2wO7C9CzcX/2taDU3ef0/d48ueF2aTr/ABuco362lVuvL+hVLXMpAiJhpIG7IyHkZ+9eq/Xd/b1i1zaQIdtPaYBPu4OhZv8AUXH++rCX7vP/ANPHl+F9hpj3OEVLgg1N2Kg9PsgbfLnj7lCazHWaJRMT2u0b/wCb3raTnE0DtqmlhruQJkZ8seq7LHqi/vB2tDjExTpF5APBd3gCfQTKzCvprxVg1bgEv8TL/f7Iwe34+FpfSXUbNOt3AsLw4NPaWhwc1gaQWuI7e2QRgSpcfLvgrtPniOaW6Z6guNQ1jw6mwsNNzgWtLTLSAQQTgicj/aFcFQOk7v611W44lwqVCGmQNxZDdw5gNEkYyr+qM9Yi3bS/w1pms7nfUREVDQIiICIiAiIgIiICIiAiIgLN/pNo0rjXbdtYgMNF/Ltsn7In5OPx9eFpCzD6V7z6hrVu/Zv/AGFRu2SJ3Y5A+Vf4ffPp/P6U5/R7ftlbapc1v9mAW8EZIxAkM838WJjnKmNCtRcWr5p0XmAAXPLNuCJEAS4TJ+4cqGFAsY2RTHaJlvwP4efn45zmb0Rmy2fItOImt2j7m4Hfn8Qo4d/FSy6ij6adYW1WwcKlRra3cQdwwWkgN27sztOY/vBEwpHo20rWmptqeGBTcwy6o1wa5sjynAn1zjBX50vfWNrptahWph9Z7yGv+yR5WgPkFoBl0jkO5ld9W9oadZUKVfdULJeG03eQ7nbTuDon4/JbuV7RaupljtWsatuHxpvp/wDHqwrfVs1TBe0SRtMbahJA9JBnM/CjupKVIXzTS8Ms8MT4ZaRul0klgiYj8IXo9Rutb+o+iA2m5+/a8NJkiDnkevBjK7LnTr3XKpqua2KY8PtDwMOM8iSNxORiMqzjwtE2nXRVym1Z1CLsLPxaBqw0saYIzJJwOPST7+kLqbSZsB8IQDky7P3dy/dJqsdZPYfOXtIE5jE9vJwD/JdtzTe84puOIADSP5LJ4jJeMkxEtXh6UmkTp39Paf8A8O1NzakOPgbwG5Bn0P6mRGFJ9I6cxutPc5gD2SWjkN3QcYGYMTC57G+pP1olrmhv1QNLiRzOYn7XH81IdFuYbl5DnODnFrS6SSBt5MemP5hczcprMz/Bh4xaIj+UD19QNHVnvDYZAEgQN0SRPvmfxVV0+4+s2IqEFp3gYktbgzLo9SMGYIE/dauviK+rugyCwfdiR/soDSNFq0NFEtiAKmI2hoHJHJGO34H8pZJvGOmnMUUm99rd9H2OqSIIim7B5GRg/K1BZZ9HTw7qcxMeG6J5jHJ91qar8X6/wl4T0T/sREWZqEREBERAREQEREBERAREQFk/02Nm8t/8J/6t/wDK1hZT9NX/ANu3/wAJ/wCrVp8JG8sfn9KPE/4/b9s5Ze24ZT/YUz+8XVandgYxwZk/j+K7NMsG6vasYx9Ck5pDS5znS8ugcQe8EHAEQ4c8qDpR4bc0uOSPy8vm+fjlWrox7QYL7cN8Rg8m4/aENEYqe5HwZXMWW/xNbdyVrFdpZ9+bK8a2pbl76LW0W1ZG2GN+y7wsSHTtJPK5rjbr+otLLc0hJNTaQXPlw7u1kcn1zn7l99SYDVeWkFpqjI8v9lT45xELu6c774ANAIbkj17mey78eaX6R+0fgxevV4r9P2x0OpVZvJZQc6QZG9rXTJAjzNyPg8K7aU2dKb7lp/OVWtPtatx0w6m4NbRcysS4uEAlzu8g057S3jeAYypez6gtm2RiqyWyA3c2TzkQeIkz8e+Ez87z9dTLmHhWN9txDL3PFvfk0XuI2Da4jaZhwOJPv+atHTl4y501zq1zUbUYZ27g0+UeUbZJ3A+vqqm2ngSOP65XfpTXVa0tp7w0y8RLdsEncZHoD6jjkYXp56149XnYb23ERDobbltAOjtcMOGR7RIJzg4OV+tYWHkj4yrNpjKdKlTNPwBa+GS/ftknd3793fuDfD8vqoWu03t9UNNxqtA3F/sNu4hznAQQMQfWPcLPiz8pmLdFubw/HU16vFhbtu70Ne7BIgQTuMgbZHE+6nNK0ttz1YbWqHmj4O9rdzw0lvhl0d3ALjhQFjdGyuA6A4exAOJExIMH59P1mdC1pjOrfHqnw6YpOaAdzoLjTB4Hrsnj0TPF+8djw007WXzTNBttLuQ6lS2v2kbtziY/EqcUFpus2+o3gbSrB7oJiHDjnJaFOrzbct+Z6deOvKIiKKQiIgIiICIiAiIgIiICIiAsz+lmyqX+pUG02lxFF5IEYG5gnJ9yFpioXWNvWvNZLGVHNG0QAGn0BIhwODHwp48s4rcoQvjjJXjLJLawNxqn1dtNprBzmFvae5kh2ZiRtOfj1U7olKvYXLqbGNb+2FJ9Tw21Ax8uAycbpnM5gKw2FSncUQ4MDixz9xds8zGu3kQTku/d9HFRer6JWbXqPo1dsVWucC94O4tNQP7fb0nOVqw3x2mZ4xCjLS9YiNzLxqdOpYl5rS6a+KgawA9oAHhtMjDSOIxzK/bTUW6JqZbVBDwPK2CeW/McesqvWFk/WdQjxabqj5O53jncQJy5zR+ZU5ZWY0jT7ulX2tqlojcYLyCQNo9W8+noJUvhYrTy3vt2RnJeka7Ld0zV8XRGu7C4sqHadknvfyRLoweAq3qVqHao+WtDjEgbxyxschp8ueBO715MNV1yta2LWscW0HMgbN0EndvAJzO4P5x+S6aNCqG+dj3tcWuDXgkGTnuI9QVVbcbms63KysbiIt16PjcW1S31Bj2Qxm8MG8gMk+vdMABw5Hp6q12b21vDNJ1A2vcahcG5yfEc/e0OksHLYnPpCo1fUXXdXaNzgCewlvmmCQMie2J+5StlWfVDKUy3dhnaASXDzSADkRLsAD0C0WxWyY6zM9YZ4yxjvMa7uxtUP3+B2UXRSdBgD7JLw4mCZJBdwNpHorDY0N76DaP1c222HtdtLpLiH7tw3SWbY2xmfhftrTNE0w00G2rWEVmuaJHd+0DgZcXFpYMHkKBunCn2U3E0vMGiYBOSCD6gmMzgDJCprWcs67a/vustaMUb77/vs6q1iK+rGmQ2kGho2nBIxxMy8zOfx9l2aR07SueqHUarXFng72y4g42b8j2LwFF2N0Le5DnN3gcTOMzIzyMqb0HVqTOrHVnvLKfg7GB44JDN+GzyabeVbmi8Rqv0U4Jpvdvqt+kdO22k3ofSYQ+CJLnHnnBKnlDWGq0L66Ap1mvcRMCZ/kQplYLct+Z6FeOvKIiKKQiIgIiICIiAiIgIiICIiAqJ1y2iNYptq1xRD6RcHOgDtLGkSTyQ7+QKva5rugyrlzGu9pAP6rsa+Z1+TJbLqS0dqbbZ2KbXOZ4znt2EAObJI5Dh/wBwXA69FPqOruqNptDXsFQukVP3CA4wG7YAz7GVrQsaFKr20aTZEy1jQcfICxnqOsGPbLKbooU2uLvNjA25ESPMQI/U6MdscRPTXyUXi8zHujukKjbfXGPLw1ocQSXNDQCIzk/orNYaazWuoLhtG5G+DUa9zTMF53bc8gFvcPRxiFVLmt+zqA0qLct3GnyCQwBtM7j2zMnMzzlTWm6O/VdTpilWbQuGj+7BAgAkuDwTJMx64mcKeO1KxPGeqGSlrWjlHR46j0g3OuU3bTVpspvreHSLsbYknxDETHlA5zlZ+bgXNnVa5j9z6m+BG1vBgHnjH+UfKvmq6ZW1PXvq95Vc91I7A+m4NlrtpIJDP4h6eii6nRtvQoFwqVmgSdu5k8wI/Z5n7/RZpiWiJhD6KwVaTKeyq3a/eXehB7dpPp5vyH4aTZWVK0osNUVajKr3FgAb2Nhsw7MvO9vlMdhB4hZvp1sWX/7Px3CNxadmWyc4jd3NkCOWcq9dNdSvoWQcym5tIuL2gvdnkBw42kCRwRwYkBWUmZrxiequ8RE8pjolXaRW0y6e1jwPvOwuadzfI4ZGCCPlcbbV31gN5eY4cD74xhcNV7r2jAI3tDnd7sSfv9Z+MqR6b0KpU6bqXniMOx3a1rjO1sb95IIa/khoHsD7rXOTh3nqyRi5x0hH311VsLurS8sUi6pO04AJEGCf9Pv8Lmfe1g5xc9s+F4z8M9C7aYDOOwdo9zK+l9aVtZ1irVp0muD2FoGTsdDhMNacDcPTg/gvyvodwxhJotYDS2Aua7Diah3ZZmdw7f8Am/HJktk5TpqpXHFY2uPQQNTWWPeT4mwjtA2xtIy4RBgCAAtLWbfR8RRv2MO5ru47GeTg9zpg7vwWkqOXfTf0dw668fqIiKpcIiICIiAiIgIiICIiAiIgKn9ca/W0W8peGW7DTc9wLQSSHMa0SeAS4SfZXBUf6QdKub/UKD6FI1A1j2vGIIcW9pkjkA8cfBV2CKzeOXZR4ibRjnj3/wCunVze6f0+a7q9MuazdUa2mG9pwdj5PcAcEgzHCyLVmVL25rF8VHtcQ54hphro8o9IbkxiAJzm9VdP1KpYikaNw+m2NtN76RbjyhxEFzR+6YGAoyw6Z1KzuzUZQdvcMl3hmZIJkF2cgH8FpjFSaTE2jf4Zfj2i8TFZ1+VKrWwDanYwHtAh4O2C2WDuMjtPdnyjOc2bTawoUe2qylUZJaxrN8GGggVSSPTnPHOVYKunaxVpuaaRhwMkeCDnmCHSP69go6h0NfN//PH+el/7LuLDjp1m0e8GXPkv0is+0qj1NcuZRaZDQCSakEveSJ7iXZ4woGvcVKTXzWPZG6GzzIEZ/h/MLYdM6Vu7aq4voSDTc0d1I5Ixy7819rfpm78UGpbhzRT2bWvY2fYkh39QMKGTUzPG0aWY7zFY5VnbFX16to55FxBZAcQzOZiDPwePhTWn3VWpa3FMONWtTZOZmcxBPMrYqfTMU4NqT99RsfdHiGM59VGO6Puy/DGgenc3A9AoY4iLb5J5LWmuuLIbu6qNa8F1bsiYpzO793vzCUryppzKwFWqBLfEDacbzB2/b7o4zwtwtumaraAFSkXuHJ8UAEAk7fgRj+s+63TNXwXBrO4iAS8e+Ae70x/p+ccnv6komdeljFtr1XS6r3CrWIpkbmhkB+70A35+VsHTNgdbpnxKtQNa1roDskvbIyZgAYgcpedLV6lWabAxsQW7wZ+f0x8L3a9OXdAYO0gRLKhaY9iQDIU41r1Krbm0eSdP3RbUWvVu2ZLHOZugCRs3DA9RJB/BXlVPQtBr2eqtqPDQxodgOJMuGSSeSfUq2KnNMTMdfkt8PWYrO411ERFS0CIiAiIgIiICIiAiIgIiICIiAiIgIiICIiAiIgIiICIiAiIgIiICIiAiIgIiICIiAiIgIiICIiAiIgIiICIiAiIgIiICIiAiIgIiICIiAiIgIiICIiAiIgIiICIiAiIgIiICIiAiIgIiICIiAiIgIiICIiAiIgIiICIiAiIgIiICIiAiIgIiICIiAiIgIiICIiAiIgIiICIiAiIgIiICIiAiIgIiICIiAiIgIiICIiAiIgIiICIiAiIgIiICIiAiIgIiIP/Z;" vertex="1" parent="1">
          <mxGeometry x="300" y="260" width="230" height="230" as="geometry" />
        </mxCell>
        <mxCell id="WroAq-mQZTox9uwcmQEj-10" value="" style="shape=image;verticalLabelPosition=bottom;labelBackgroundColor=default;verticalAlign=top;aspect=fixed;imageAspect=0;image=data:image/png,iVBORw0KGgoAAAANSUhEUgAAAOYAAADbCAMAAABOUB36AAAAhFBMVEX///8zMzN/f3+zs7MwMDAsLCwpKSmCgoIlJSUqKiq4uLgdHR0jIyMfHx8bGxsZGRk5OTlOTk74+PhAQEB3d3dISEjv7+/c3NxlZWWhoaFcXFxycnJWVlbU1NRaWlrx8fHDw8Ojo6MSEhKsrKyVlZXk5ORqamrLy8uNjY2RkZHg4OAKCgqvfQ08AAAOpUlEQVR4nN1d6WKyOhAVCWGXVeu+gtre93+/i6B1MokK1E9Gz69+va03pwmTMyu93uci19NhOJ+Mul7Hv0SezQeewTRmcafrtfwrxM7StZhWgW3XXa/nn2A1Cd0Lx5JnGHe9pOcjzgwPkizgrrte1NOxYRYiqWk863pVT0a89CWSmmaYXa/rydhbMsliNyddr+u5OGxVLLXg0PXCnovUVrE05l2v68kYKh5Mzdj+dL2up2GV58XlmEg0GXejj2G52PMgCM14ZogcreKb664X9zRMtka5cZoJaRp+kn11vbTnIZ65l90rcCFpB/uPsq/58HpXsmXCK5Je+jFPZImDAQ4q0/JZ4Ht+kH7QaT1BHwjGNfjp5c7Oybte1pORBUjvfNguVjAH6JoMVl0v6R9g7GHBM+56Sc9HPJXckU/T6CfMORZ2wYc5XCfsXMzS+8QQXohkOg8/SxBUyNGD6Y0/0cj2vkQr6/a7XtC/gbibwabr9fwJo6/F4bD4UqVBQKSADd7W+OTO9zjcboOB67rBdhuOs1+luk6TcKzrv9vJ+KLTpbbGoT/0fW4AW8oM7nvRseAT7wObMcMfXiIiBn9LIftlDlyuil0V2xYYk4sqYGxsWYbBg+U7+iPrqYvVjcj09w9gjPNsPH3LWM9h6Bp3SIrw31QPjGYD5WG9AW/X9YJbQef3jqsM6x2VejwLmmzlaTf1rtfcHHqkTGbd3c23ezbjadOtLIxu1PWqG0NykX+5MBhjFvF2SeiZ8sAyQ0uGURQNk1BN9c2iBZmv4phMZ/2+WaKfjiMV02Dd9dIbQJdzzCxcpgW7K4p/jBVpPe99rNAChyGLB3LahxwvTPcJlkgs6Xr1dZFLMp1FCpIV0amGftg7dr3+eoiHaIcKz0NNsiSa4pPrvYcXNkZXCQvT2yxPmIs836N+wkQPJktuHNjrhk7F7X8Ha7tDuR42vM+x5DkW9vMNxNAas1w+2MozT2E/yRce5qhU0qjFsuApPJ/GtGse97FC+QEW1WNZ8BTqnIiXN83F0rPC+tQHpMm/u2ZyD6mo11nYgKVghljYNZU7mCC9zmZ1j2wJKBN8uuFoB+l1tm/E0twDmnSDQgtsZKeNWBY8Q/DLVEsORkiCs3lDloUYAqkiRrM1IY5QqWQN8YORgj9UQPNKmYl6vZGR/QUwQj7JxN8RB0XSFiyhFCJpg3RUgWY0u0ouNMHVaRNMyR+QXjfuuNH3MLvSJChrcwv7xe1YQhvEhl2zwlglbfW6RBPasK5pYUyRkW2i12/T1LqmhYCDImEbI0ueJjY/DfW6AGCCqB3aMVI/zfS6iD1ZEzQSb8zGeh0CilpiF8pakD/tjWxJMyIrD3bQALHhX1j2+8ATIyb2IM12ev0K2A9GTLpDmo+SCA8gBDGJOWLO9dls7kgjwONPzK3+AZb2jwYIhvaMfdfERMQwsd4mZHBFQjnkJTQ/P8zx3dtMqDPI5TjRxam11nrCx5DLzMc4bdLOpRZzRRal+qD8sBj1ehvkobRyqs2Z8McK6NQNx6k1GHCz18M1Em0MkZgQI2Rn46TMC3nz3lrqeWpsiFAal1AG5VJI4W5wIqy5IUJHlpB30r88kSf/V6phamiIUvGXfTK3yeYaM7BXvVyTeNbNxpcQY2Z04iOgkIIZxb9z3KxX8KxviNDcEY/KbfIFqtWqFB0uOjjxT+oZIhNVP7GEiGpfwSuk6mTfKIqE6xkiGBkBH9g94jl4Et2ypWKtHl5UwxAJOeryA6n407Dw2S/LJb/UnVE1ip/MFLOk8mBmQA3wUq6sbpWuF09u9GA30TNtpV3TOwOECwprWlqL5Z3uqPuFiSZKv9hUii8X4ClkRtlsCg+xIVXy3zNEMGJZ/U2IGFmhkKKSnuIh3mzlm+VWIB4bWUZF/giFz0FpE2Gi2oji3hrPcbypiJBeL/5s647pXbAH12NlExfgUWX8dIgXCuWnMkRIrxNqGj8CD7qyiSPQRsy8yn9azeUHVGGIkF7XPCrzHnfwfJY2UagGuja3p1KzDQslQ4SMLKdS13Vw4bJLIwur9/3qYl9sMieeSM2pDBkiE+l14+VGdnTYfB+zzQHFY35scD6t0ibKhzgeby3Lt9YqQwRzguYcpUXZi6M/h7HhWpxblsuHRxCsECJ41VBjOBHm3FVRDfxh28OPJbva16C8ZGS3rw2LxLPtdQGMb6Pf520Kws5+aRMP/wEKYTkmJT1vL0t6ozuGSNLrgxd34eIGWjaYV3/nPjifXplizQUjWx7iya+3HSyK86swRJULivW6/+Kab9wQdFrafyfTMgFGlsuOdNUg41x/qExPZjjkd1FEWK/PXssS176cl7wXMggsKc8nrAYalImdLzD9OCjPgCP3qrKpKRnZ6LVGdhdIq6q2b8jg+SyvEuEQlxf7CP5QdT1MFC25RoT1evjaofsHRQfteSXga78clTYB1UB8efqOoBQquevgmXnVhyGW7mv1eq6auC2hsomQwNnphKOsK5OyqPWBL26UwgWGapyDIqDkkvHyYod1w5VJGd2OKQC8umd8WmeshlUGRQSnc1AeYkEplCYFF7+r4b04KJLi9J1yNHXVcbgESsEtDzEcS36RuzCmcGtf7RdnS3BDkD1R7O6ZwAEY5OoQ50xSCt/gA/ksUh8Vpr32KsENQfa346QKnqUB/b7+h+opjGWlgHw2hSI6fZzxWr2OJtxpVt/RdecoR18HJ0Vk/tI8G9mxpBQWsIymjClk/8mP6va1YzxxQ5A9LlgWPDdyYsTdgyw8Y6UekpUCnAjAzuPHfsYD5Hu5r9br4v/fmOsVnF0kvQrAmq9G5wN4DopsoFKoYgow33l9Ec1hv/UuxogZfvjikaxoSgpL9F84siEy7Fwvg5TnN+nAlDwbSnLXh/fiaDdOrIHv+y6bvnoA0rdoHZi20QFPKeGuMWu91gJ/m5QsBaXglybFlHw2gDhfrJ21cmjiPwVuCLIzR4c8j9Klxwab3mJ9juLBx9et5C4MT1OpIsB63TIFlgXPicIQXfZIyAEOqhwgNLIJkdGreEoKnyGWJ0OEZ4yUhqj89fs5wLPc7R4xqgExphLLE2RDZIenawIOP1LkAAdUxlujoAgbqkgWGyqPrCoMUc+Bel3OAQ6ozAbsi+qHhTs1TbUhOsKrhEk5QJ/K3B88eduaKI9sZYhwZV5xTMHXihwglWQBrovg3zdZqg3RFeocIAn8oPg/T++wVBuiC845QHiILSIvj8QFS2e9fgfO7AbPKn0CnU7No1JDifV69ICkrnbNtEtMQZHIJoA+npKye0xTdzLZEF30OvxAn0pxDwqhMrZ5dGQrngpDxKYnYzOScoAUgIKLd42sCHmEp31SriDHS6a4p/cluiWSXr+3obIiMgqeV5rnHCAF9IUt4fv6LAuepmSI+LJ3CSlcInsUIIa4jGUTlkpD5H//FrwTGpInbCYLG5E88dxIxe3eVzws5AYztlSKe3A/ND8228wSS2SITs0G3wX5JRXfq4fSjqyGLlAAv8v1FHONcyIKr4KQ++Kbx5wUwIaI3lQqWGanGXJUpCZPZIgsIgGRX2TgvNUTeWqem1DouKRjeyrAhgi733IzT9jBIYmE2tdKrISYQXuSpw0FxVrUhojA4pfWT+aFJ6h92ZLReCXgdWJN/sZyD31MWpMKwNJuBSzrshScVirdQGeAW/NvZ9bJBMm3JaUNekCmNXAzFUB9YTaRUF6FFbw12ymgCjuxkIjYhZLDWSl/YKmjmBmZFrYKP1eaLGl/Zp2xmK83iA0pBy41G7am6fRRksmldZ0INKO2NJ0j8sPINARd8PMEms4ENwRRGwjTG4H3tbd9NncoMUGmIeiKGDxUbS0tquImU0gBAcsIW92bDnrhxesbguoAuJutVBBOjL26wLAmrpWFhXJpTtMxsZElFMwD2EF90JxlhkK0AZVCCgRYBNrc39yhJNOrG4JqA85SY+o6oDssUeG/RUuwQ0CX32hma505znFTNLIV4DxH42HFgcByj4fU03KlBQhv++ZZg9SmiTInW1pxEQRYcdYgH+Z8U9frInQhu1D37nQ2uLeUSiHFDQhzKzVeL/DuSHqdTCHFLWTC6bPqJDidCZ6SsuyaxUOgLjX7MU/naIssCRVS3EYmVpjyR5UkkpBlnFhQRIkY1wXt77OUqvXIv56ugoNKaXl0u8zL2UidbFT1ugSkZzTGUkdJ1HH6Ur8pwaDIDcRSVTdPjrrctqAfE6l6jUzhcw0cpLZ4xpN0B7fUcXb9oVxbSjMocguK9n9meMM02+xOHHebLB1aij5appEMitzEUdWvzwxuhMMCYfGFslf4PyqFz3VxlNoWL1xvvvRdY8RSQjWQ12mOF+ERqjysC9Usjbtg/uQNJB7Gvs5kAgD+6gba5wCPYHqwlYP0Dbeyh94j8PC8Dtddr7clnJsjZSSSHnsXFQvx1de2Rnq4ZrYseZLaFfYgekeSvcwtJByzeXS+HtlW16Nrt76wj9wN0re0PL3+Rf6w+XzAbe6H6+K7+W4fDrxC+vyOJuCWyyNz3fFq22J2DR1Yi/UxPToXKb760rNZxIJtASuZmpsD4XDzfcRw/h2/4Ti+kwuiRD4UmjPIvV7lOViIMxvpzP1/KnZoihgjVpv1HEgepkeunufvGM3xUMRqYtFnYZVgCcvI9AY/EVLfJSP2usCnIMcRLka00uVv0KVBeu+QBWmMjXhmefJeYciHWO3MNFuIrz3VvOnb6zkBq4z73LaC/RrSDN4mCVILo8w4jxSzk+RqfFxq3Xl/wsJ0r3PTWHhxJA32QSb2axL5QrjZ3jGLMWa484+RPou+EVgo5OHpcTYPk/HnaAJzoBgFw0+1kvEHGVhTnqeuEXzd7B+xUM8tDz7I8JxgKoPpHxcPGaoiy+zTNrOn2kvufY6BPSOSdtPemh8m1AtkqISZe7NP9LlgI6rGPPv4eTtZYnd5Mxuz3OHuPXOvdaAz32C250cZ6WL0P2Olp9HR+RiJrsL/RXL4ctin+TkAAAAASUVORK5CYII=;rotation=-45;" vertex="1" parent="1">
          <mxGeometry x="372.9" y="441.04" width="74.52" height="70.96" as="geometry" />
        </mxCell>
        <mxCell id="WroAq-mQZTox9uwcmQEj-2" value="" style="endArrow=classic;html=1;rounded=0;" edge="1" parent="1">
          <mxGeometry width="50" height="50" relative="1" as="geometry">
            <mxPoint x="390" y="300" as="sourcePoint" />
            <mxPoint x="290" y="140" as="targetPoint" />
            <Array as="points">
              <mxPoint x="390" y="140" />
            </Array>
          </mxGeometry>
        </mxCell>
        <mxCell id="WroAq-mQZTox9uwcmQEj-5" value="" style="endArrow=classic;html=1;rounded=0;exitX=0.174;exitY=0.348;exitDx=0;exitDy=0;exitPerimeter=0;" edge="1" parent="1" source="WroAq-mQZTox9uwcmQEj-26">
          <mxGeometry width="50" height="50" relative="1" as="geometry">
            <mxPoint x="270" y="340" as="sourcePoint" />
            <mxPoint x="130" y="630" as="targetPoint" />
            <Array as="points">
              <mxPoint x="130" y="340" />
            </Array>
          </mxGeometry>
        </mxCell>
        <mxCell id="WroAq-mQZTox9uwcmQEj-6" value="" style="endArrow=classic;html=1;rounded=0;" edge="1" parent="1">
          <mxGeometry width="50" height="50" relative="1" as="geometry">
            <mxPoint x="520" y="380" as="sourcePoint" />
            <mxPoint x="690" y="620" as="targetPoint" />
            <Array as="points">
              <mxPoint x="690" y="380" />
            </Array>
          </mxGeometry>
        </mxCell>
        <mxCell id="WroAq-mQZTox9uwcmQEj-3" value="" style="endArrow=classic;html=1;rounded=0;startArrow=none;exitX=0.609;exitY=0.217;exitDx=0;exitDy=0;exitPerimeter=0;" edge="1" parent="1" source="WroAq-mQZTox9uwcmQEj-26">
          <mxGeometry width="50" height="50" relative="1" as="geometry">
            <mxPoint x="420" y="60" as="sourcePoint" />
            <mxPoint x="550" y="140" as="targetPoint" />
            <Array as="points">
              <mxPoint x="440" y="140" />
            </Array>
          </mxGeometry>
        </mxCell>
        <mxCell id="WroAq-mQZTox9uwcmQEj-29" value="" style="endArrow=classic;startArrow=classic;html=1;rounded=0;fontFamily=Helvetica;fontSize=12;fontColor=default;exitX=0;exitY=0.5;exitDx=0;exitDy=0;entryX=0.174;entryY=0.696;entryDx=0;entryDy=0;entryPerimeter=0;" edge="1" parent="1" source="WroAq-mQZTox9uwcmQEj-27" target="WroAq-mQZTox9uwcmQEj-26">
          <mxGeometry width="50" height="50" relative="1" as="geometry">
            <mxPoint x="240" y="620" as="sourcePoint" />
            <mxPoint x="230" y="380" as="targetPoint" />
            <Array as="points">
              <mxPoint x="210" y="604" />
              <mxPoint x="210" y="420" />
            </Array>
          </mxGeometry>
        </mxCell>
        <mxCell id="WroAq-mQZTox9uwcmQEj-31" value="" style="shape=image;verticalLabelPosition=bottom;labelBackgroundColor=default;verticalAlign=top;aspect=fixed;imageAspect=0;image=data:image/jpeg,/9j/4AAQSkZJRgABAQAAAQABAAD/2wCEAAkGBxETEBESEhEQFhUWFhcVFRcVGBAVFRcQFRcYFhUWFRUYHSggGBolHRUVITEhJSkrLi4uFx8zODMsNygtLisBCgoKDg0NFg8NFy0iFR0rKysrLSsvMDcrKysrNysrKysrKysrKysrKysrKysrKysrKysrKysrKysrKysrKysrK//AABEIAOEA4QMBIgACEQEDEQH/xAAcAAEAAgMBAQEAAAAAAAAAAAAAAgQBAwUHBgj/xABIEAABAgEGCAoGBwkBAQEAAAAAAQIDBBETUpHREhQxUXGSo9IFFSEiMlNhYqGxB0FUY6LwBhZCc4Gz0yMlNXJ0ssHD4ReCNP/EABcBAQEBAQAAAAAAAAAAAAAAAAABAgP/xAAXEQEBAQEAAAAAAAAAAAAAAAAAMQER/9oADAMBAAIRAxEAPwD3EAADDXTkXOOQvCr0nTBb8V4HaBxeN4lVnjeON4lVnjeB2gcXjeJVZ43jjeJVZ43gdoHF43iVWeN442iVW/FeB2gcTjSIn2W/FeZ43iVWfFeB2gcXjeJVZ43jjeJVZ43gdoHF43iVWeN443iVWeN4HaBxeN4lVnjeON4lVnjeB2jDXTpOcZeFX1W/EE4WfVb43gdoHF43iVWeN443iVWeN4HaBxeN4lVnjeON4lVnjeB2gcXjeJVZ43nWY+dEXOiL4eoDYCCEkUDIAAGtzibk5CLWgGtOI6FyrpO8c9YQFCiFEX6EUIFCiFEX6EUIFCiDYfKX6EwsECm6HPyrk8yNEXqEzQgUKIURfoRQgUKIURfoRQgc+iMUZfdACQfWBRSEZoi/QihAoUQoi/QihAoUQoi/QihA59EduB0W6EKlCXWt5E0ACSIEQyAAAAAADiOlcadehYt52ykyTqqIuEvLy5G3AUMbjZmWLeMbjZmWLedDFVrL8NwxVay/DcBz8bjZmWLeMbjZmWLeXmQZ1VMJeTsbcSxVay/DcBz8bjZmWLeMbjZmWLedDFVrL8NwxVay/DcBz8bjZmWLeMbjZmWLedDFVrL8NwxVay/DcBz8bjZmWLeMbjZmWLedDFVrL8Nxh0mmRVwl5OxtwFDG42Zli3jG42Zli3l9kCdJ0ctjLjOKrWX4bgOfjcbMyxbxjcbMyxbzoYqtZfhuGKrWX4bgOfjcbMyxbxjcbMyxbzoYqtZfhuGKrWX4bgOfjcbMyxbxjcbMyxbzoYqtZfhuIxIM2Vy2NuAo43GzMsW8Y3GzMsW86GKrWX4bhiq1l+G4Dn43GzMsW87UJeak+WZLSriq1lsbcWYS81uhPICYAAAAAAABqk/RboQ2muT9FuhAOBKuHIzY0WG2GxUYsyKuHOvIi8s2khx7KOqh7Qk6BPHjrzekmVqL6k9eEbMWXuaibwGlOHY/VQ9oOPZR1UPaG7Fl7mom8MWXuaibwGnj2UdVD2g49lHVQ9obsWXuaibwxZe5qJvAaePZR1UPaDj2UdVD2huxZe5qJvDFl7mom8Bp49lHVQ9oOPZR1UPaG7Fl7mom8MWXuaibwGnj2P1UPaDj2UdVD2huxZe5qJvDFl7mom8Bp49lHVQ9oOPZR1UPaG7Fl7mom8MWXuaibwGnj2UdVD2g49lHVQ9obsWXuaibwxZe5qJvAaePZR1UPaDj2P1UPaG7Fl7mom8MWXuaibwGnj2UdVD2hFfpBHRWIsKHMrmtXp5FVEnLGLL3NRN4ryuTrzOh02/YRPtJ3gPp3ZCMHot0J5EnZCMHot0J5ATAAAAAACLlAkV4LJ0Ys68iZDaiaSMmXmpoQDhK1aePzkTnJ6mL6kzqbcFayasO81zLTx+eqc5KmZM6GyZesXZXAMFayasO8YK1k1Yd4mXrF2VwmXrF2VwDBWsmrDvGCtZNWHeJl6xdlcJl6xdlcAwVrJqw7zDUWsmrDvM8tddncERa67K4BgrWTVh3jBWsmrDvEy9YuyuEy9YuyuAYK1k1Yd4wVrJqw7xMvWLsrhMvWLsrgGCtZurDvGCtZNWHeJl6xdlcJlrrsrgGCtZNWHeMFazdWHeMF1d2yEy9YuyuAYK1k1Yd4wVrJqw7xMvWLsrhMvWLsrgGCtZNWHeV5Y1eZzk6bfsszp2liZesXZXFeWIvM569NvV507APoXM5Z51yZPUZg9FuhPIk7IRg9FuhPICaqYas6EFdOTanIBkAACKeskYVAMEJMnNTQhsRCEn6LdCAcKZaePz3Jzk5EVmZM7VNmC7rH2w9w14H7ePyu6SZFcnqTsNtGtZ+s7dAxgu6x9sPcGC7rH2w9wzRrWfrO3RRrWfrO3QMTO6x9sPcMJP1j/g3SSwlrP1nboo1rPtdugYRi9Y+1m6MF3WPth7hmjWs/WduijWs/WdugYwXdY+2HuDBd1j7Ye4Zo1rP1nboo1rP1nboGMF3WPth7gwXdY+2HuGaNaz9Z26KNaz9Z26BjBd1j7Ye4G4XWOtZumaNaz9Z26KNaz7XXASWfKr3diTt3SGC7rH2s3TNGtZ+s7dFGtZ+s7dAxgu6x9sPcGC7rH2w9wzRrWfrO3RRrWfrO3QMYLusfbD3CvLEXmftHrz2+tmdO6WaNaz9Z26V5YxeZzn9NvrdnTsA+jfkNMNea3QnkbIichGTpzWr2IBNrSQAAAAAAANcn6LdCGw1yfot0IBwqKePH6XSTIsTMmY20Pa/WimqhRY8deXpJ635kzKbcXTM62JvAKHtfbFFD2v1ooxdMzrYm8MXTM62JvAKHtfbFFD2vtijF0zOtibwxdMzrYm8Aoe19sUUPa+2KMXTM62JvDF0zOtibwCh7X60UUPa+2KMXTM62JvDF0zOtibwCh7X60UUPa/WijF0zOtibwxdMzrYm8Aoe19sUUPa+2KMXTM62JvDF0zOtibwCh7X2xRQ9r7YoxdMzrYm8MXTM62JvAKHtfrRRQ9r9aKMXTM62JvDF0zOtibwCh7X2xSvLIPQ6fTb64mdM5YxdMzrYm8V5ZATmcjum31xM6d4D6N2QjB6LdCeRJ2QjB6LdCeQEwAAAAAAADXJ+i3QhsNMB6YLUn5VQDiUKLHjrN9pPJO8bcXbV+dY0rCaseOqtb0ky4OZM6mygZVZYy8CWLtq/OsMXbV+dYjQMqssZeKBlVljLwJYu2r86wxdtX51iNAyqyxl4oGVWWMvAli7avzrDF21fnWI0DKrLGXigZVZYy8CWLtq/OsMXbV+dYjQMqssZeKBlVljLwJYu2r86wxdtX51iNAyq2xl4oGVWWMvAli7avzrDF21fnWI0DKrLGXigZVZYy8CWLtq/OsMXbV+dYjQMqssZeKBlVljLwJYu2r86wxdtX51iNAyqyxl4oGVWWMvAli7avzrFeWQE5nN+23zTvG6gZVbYy80SyCzmTNb021M6doH0jshGD0W6E8g56ZJ+UQei3QnkBMAAAAAAAA0SZEVrVVOVMhNXEZKnMTQBw1RlPHnwOkmXAzJnQ2TQ/d7O4rRJTDbHjo5URcJMuhO6a43DUkYuC+PAas08znMasy8k8ypk5FsAuzQ/d7O4TQ/d7O4531gkXtMm14dxr4/kmF/+mTTfzw8k2SabLPyzgdWaH7vZ3CaH7vZ3HO+sEi9pk2vDuJJw7I1VESUSedfVhw7gL80P3ezuE0P3ezuKEThqRtyx5Omad8O4xx/IvaJPrw7gOhND93s7hND93s7jnfWCRe0ybXh3G6T8LyV8+BFgvmy4KtdNPknmbyZFAtzQ/d7O4TQ/d7O40rLoNZvz/8AJWicOyNqq10ok6KmVFcxFT18qKnIBfmh+72dwmh+72dxzvrBIvaZNrw7jP1gkXtMm14dwHQmh+72dxhtHmh7K4orw5I5p1lEnm9XPhzeRFPpBIvaZNrw7gOjND93s7hND93s7jlP4fkk6TSmTTcn24efl9XLOhs+sEi9pk2vDuA6M0P3ezuK8sRnMmwOm3q86dhiHwlJ3IitiQ1RcipMqKnYqN5TXKpXCXARFbPht/uTugfUOamWblEHot0J5EnZDVC5Wt0J5AbgQmzEkUDIAAGtzpyaoYa0A1pGT9FuhDYa5P0W6EA5b5A10SI5fW7/AAh4z6XZK1vCbUT2SEu1j3HuLOk/+Zf8HinpmX96s/pIX50oLlHxFGgo0E4nNoUaFli4KsiNmXBRGrp5UmX8MmgrzmYcRUXk0LmVMygdaK9jmNiRGt9eAzLOvrVbDkxecs6onYiJMiJmRBEiKuXQiepEzIYQDFGh6V6EZG175fP6kgeNMeaznqXoHXn8IaJP/uJsHoUu4MZPD0r5KeC/TqAicKS5M0Rn5EJT9ES/LD0r5Kfnv0gL+9pf94z8iEZyq4CQkLclY1uXkX18iKipm7NHrQrNfMpslEoV6zr+K8k6rnX55DaIxEReRJ8FMk+VVyTr88hrokE5lFAxRIKJBOJwPdPoLwe1eDpAueE3yU+hi8GsSZcyovihyfoB/DeD/um/2qfRyjJ+KeZzVddkNcDot0J5Gx2QhCTmt0J5ASMogRDIAAAAAANcn6LdCGw1yfot0IBWZ0n/AMyniXpoX96s/pIX50oPbWdJ/wDMv+DxL00fxVn9JC/OlBco+HnJIpDJlsIq42iauE5CcTgTnE5CcTgbZ59Pn/09R9Aq8/hDRJ/9x5TOeregV07+ENEn/wBxNg9Sl+WHpXyU/PXpB/i0v+8Z+RCP0LL8sPSvkp+dvSIv73l/3kP8iEZyq4SuE5CcTm0TnE5CcTgbZ59Pn/0jOQnJTz6fP/vzpD9B+j/+GcH/AHLf7VPo5Rk/FPM+b9H38M4O+5b/AGqfSSjJ+KeZzVddkIwei3QnkSdkIwei3QnkBMAAAAAAAA1yfot0IbCvBfMjEmXlTKBqZ0n/AMy/4PEPTWv71Z/SQvzpQe3s6T/5lPDvTcv71h/0kL86UFyj4fCn0+ZGchOSnn0m0ZnE5CcTgTnE5CcTgTnPV/QF0+ENEn/3HkyZ1+f+HrHoAWd/COiT/wC4mweqy/LD0r5KfnT0jL+95f8AeQ/yIR+i5flh6V8lPC/p59FpfF4TlkWFJIz2PcxWubgTORIUNqzTuTlRWrZbnKr4acTna+pnCfsEo2W8PqZwn7BKNlvG+o4s4nO19TOE/YJRst4fUzhP2CUbLeHRxZyU8x2k+hnCfsMfZbxH6m8J+wyjZbw6PbvR6s/BnByrloW/2qfSSjJ+KeZwPoRJIkLg+QQorVa9kJrXtWadHI1Z0U78oyWeZzVddkIwei3QnkYc/lmmXJlMwei3QnkBMAAAAAAIqoEjXJ+i3QhnBISZeamhANDOk/8AmX/B8f8ATD6ASfhCUNlESNKWObDbCmhrCwVa1z3Iq4bFWed6+B9bEhOwnKitmVZ+WchQvzt8QPOf/G5H7VLrZN+kP/G5H7VLrZN+kejUT87fEUL87fEvR50vockftUutk36Rj/xuR+1S62TfpHo1C/O3xCwn52+I6POf/G5H7VLrZN+kGeh2R+1S22TfpHolG/O3xJJBiZ2+I6POl9Dkj9ql1sm/SPpfoV9D4PBqx1gxY0SmwMKlWGs1HhTYOA1tdcuZD6Chfnb4ihfnb4kE5Qqvm9U3LyaJjTQd5fAnRPzt8RQvzt8QIUPeXwFB3l8CdC/O3xMUT87fECND3l8BQ95fAlQPzt+IykJ+dviBCg7y+AoO8vgToX52+Ion52+IGIcOZUWdVm0ZpjbHXks8zXQvzt8TNC/1q2b8QOi7IRg9FuhPIyq8hCG7mt0J5ATetplDWiTm0AAABEkYVAMFVMNERMBeTtZeW0QyBSmiVFtZeJolRbWXl0AUWsek/MXl7WXmZolRbWXl0AUlw6i2svIzvqLay8vKhhrQKaNfUW1l5maJUW1l5dAFKaJUW1l4Vr15MBbWXl0AUWteiTYC2svMzRKi2svLoApftKi2svMJh1FtZeXjCoBT59RbW3hEfUW1l5cRDIFKaJUW1l5h7HrlYtrLy8AKX7SotrLxNEqLay8ugCmj4ifYW1l5tgtWZNCT2G5zZwiAEQyAAAAAAAAAAAAAAAAAAAAAAAAAAAAAAAAAAAAAAAAAAAAH/9k=;" vertex="1" parent="1">
          <mxGeometry x="605" y="706.4300000000001" width="160" height="160" as="geometry" />
        </mxCell>
        <mxCell id="WroAq-mQZTox9uwcmQEj-32" value="" style="shape=image;verticalLabelPosition=bottom;labelBackgroundColor=default;verticalAlign=top;aspect=fixed;imageAspect=0;image=data:image/jpeg,/9j/4AAQSkZJRgABAQAAAQABAAD/2wCEAAkGBxMPERUREBASEhAREBATFRAWEBAWERISGBIWFxUSGBUYHyggGxolGxUVITEiJSorMC8uFx8zOTMtQygtLi0BCgoKDg0OGxAQGyslHyYtLS0tLS0tLSsxMC4wLy0tNi0wLy0tKy0rLS0tLi0tLS0tLS0tLS0tLS03Ny0tKy0tLf/AABEIAOEA4QMBIgACEQEDEQH/xAAcAAEAAQUBAQAAAAAAAAAAAAAABQIDBAYHAQj/xAA/EAACAQMCAwYBCQcDBAMAAAABAgADBBESIQUxQQYTIlFhcYEHFDJCkaHR4fAjQ1JicrHBM1OSNIKi8QgWJP/EABoBAQEBAQEBAQAAAAAAAAAAAAADBAIFAQb/xAAqEQEAAgEEAQMDAwUAAAAAAAAAAQIDBBEhMRJBUXEFIvBhkcEUUqGx8f/aAAwDAQACEQMRAD8A7jERAREQEREBERAREQEREBERAREQEREBERAREQEREBERAREQEREBERAREQEREBERAREQEREBERAREQEREBERAREQEREBERAREQEREBERAREQEREBERAREQEREBERAREQEREBERARE81QPYiICIiAiIgIiICIiAiIgIiICIiAiIgIiICIiAiIgIiQvbG/+b2VeoKgpsKLhGJAOsghQP5s8p1Sk3tFY9Z2c2t4xMsqpxu3V+6a4oipnGg1UDZ8sZ5xxjjVCzTvLiqtNemT4m9FUbsfacht+I8NPDy1StSFcUyGolf2zVMfVPM5PIjYTmF1xGrWIDO7tsi5LMfIKPwE9nF9Kpa0+czWKztO8d/H5LJXUZJjqHY+J/KNdX9Q2/CbdyetTSDUx5nPgpj1Y/ZJ7sR2Qubar86u7pmrsCGpIxZSD0d23bpyAwRzMleyNhQs7dUt1K08DXnd+9AALt5k4k33zN9EaR/ERv8AAfjPNz/Uq+M4sFYrXr3tPzK9dNvMWvO8shqoXGSBk4HqZcmo8e7S0uHVEN0jinVqimKwBYAnfUzclXGTjnsfKbYjhgCCCCAQQcgg8iDMlPKa+Uxx6LztvsqiInT4REQEREBERAREQEREBERAREQEREBETwmB7LdestNS7sqooyWYgKB5knlIftDx029Go9CmK1SnTLhNWAceu5O2T8Oc+d+0/ba54g2a1U6M5FJfDTX2X/JyfWbdBo/6uZ2tERHfrP7JZck0425dY7V/KzRoZp2ais/LvTkUgfQc2+4epnHe0Paa4vX13FVnO+AT4VHkqjYfCQdSqTJTh/Z+pUVa1Zvm9szKvfupPMEghRuRgE5OBscE8p+ipTTaOu9eP1nv8+GXxvkn7kU1Sbd8n/aCysBVr3FMm8T/AEH0lwAQAQibKHBz4mI2bYjGDFcd7Ntb3NOgrKRXCGmz1KY57eIjbGeR6gjrkDO+Z2nD20Ni/vT4UoBC1KnW1FdDqG8ROoYHiwUwV32y6vNTLi2iZnf2WpXxl0vsZ26o1HpgVHZ6tIu1Nl8QAbDMxAwWB5aeYzynUtnXbcEfd5z5ovru6ttd5c3VOndtTSnStdK1aiJkYYgeClpHiC+p8IzOx9ge1FOsoomutRgF3BBAZhkLq66tyPzE/J5MfhP6NUTu2LjPDaV5Re2uF1LUGkjqeoZT0YEA56ESB+T2heWZq2FyjPb2+9veZXS9MnakRnOQD5bYI5ac7irg5x0ODKK9ZaY1OwUeZM7x57Uxzj7if8T7/wAFqxMxLIVsz2R3D75azHSDgLsTtkE89PltzkjOqTvG5JEROnwiIgIiICIiAiIgIiICIiAiY1zerT5nJ/hHP8pD8QvKlRWCMKZKnSSpZQcbFgCCw9MiRyZq0d1xzZLXN+qbDxHyHIe5kVcXbPzO38I5fnMfMZmLJmtf4aKY4hTVAXVUCanCY8Kr3jKMkICcdScAnGTOK/Kp2VSydLigrincPU1KQuilU2YKuOWfEcemx6TtoM17tC9O6WpaafnIrIqijTQ6kcEk1DUzjY6cYGxU5O+1Pp+ovp88Wr16x7w+Z61tXl8+8OrinVSo6LUVHVjTYZRwDupHUGTXFO1dRspSVVorUdqQZARSDEMQtL/TUagWUYYpnAbbM32l8jFXu8sx1+XeU8/ZjH3zUT2cHD75Kd+alOmMlKqkJiqBlCxOdIyBuM9DvvP2c30+aJmPumI6eVFpidpjZqlejWetoqrU7+oVP7XIdi4BVmL+YIOT5zOs+z9w9c23dtTuKbZYsSq0lG+tmHIdQRnORjmMyfH7ejdrXv6nEVq3r3mnuVpOrNTHKpTTGSNAXGSoGkjJ2kPdV617cMaRua1SoMeJ3q13XSAdRHQ+XIA46TFjyZbzNbcfn+lpiPRP1+4tqocZ4nxKo5JVg7Ij89RpKDrfORpLbFcld8TM4TxC44dcKK7W4uLy5Bq0gwNagCVzrVPAjMD4V5jPIbSO/wDtlK1pd1wy3FIuv7S5qeOuWIIKjJK4AIA2xnJAB3kZ2QqWiXatxGm1W33yAzAB8gh3xuy88j168jnzaO9qzbZ9rZ9Ft2nRKWsn9qMrv9FgOTn9ec0LtJ23YYwQ9WoypT1EAZLAZGdgu/PkMc5pva/t2bmqfmyBUA0qSo0qo5aUPM/zN/xGJprlqjFnYsx5sSST8TMun+nZL9w6tk2dCu/lBqU6tM2zOlahVcVjlHo3ADctX0sbY2wDnPQTvPZfj1PiFulxS2DbMh+lTcfSQ/rcEGfM3ZfslcXzAUaZ0n65Bxjrjz/t6ifQ/YDsoOF0CmrVUqEM5z5DAHl1P4mejq8GDDgim/3x+c/wjS9rX46bTERPJaCIiAiIgIiICIiAiW61ZUGWIH9z7DrIu54oTsg0jzPP8pO+WtO3VazbpJXFytP6R+HU/CQ97xRyQqKQrZywK+EYyCcnO/LwzDapk+Z8zPOfOYcmptbriF64ojt6XgNmWKSEABm1MBu2kKCfYcpRdXiURmowGeQ5sfYf55SHMzwpuuVdNPVVwckKGIV2JAJC+EZP1uglq94mlLYks55U1GXJ8sDl+ucptLa6vN0Hzagf3jA9449B+GPczZOEcCo2u6Ll+tRt3Pnv0HoMTVj00zzZK2WI6a9b8EubzeuxtqB/dLvVYfzE8vj/AMRNo4bwylbLoo0wg6nmzepY7mZk8ZgNycAdZtrStY2hCZme3s5P/wDIHuvmtAHHfmsdP8XdhTrPtkr9s6LecUwD3a6iAd9t/QA4yffAnFPln4XWZqd/4yjIlOojYJotzX6OQAckHG2feaNBqcMaqtbW/wC+znLjt4b7NB7N8Ga8qsiVFV6dNnCnOqrggaFOCAckbnlzwcGbVd8VtrEqLQ91SNMrVt/C9aux3Afcmmylira22NPKLgnOgo5U6gSpwRkEg4IwRkeYOJSiz3sukjNfeZ49kIttDJ4ldd/VeroCaznGc74ALE9WJGonABJOAOUsBZeo0C5CqCSeQAJJ9hN87J/JncXmHddKeraR7F8H7AD8JstOPDTe87QlN+dkHw3sRXr0RXUEKwBB0MV35Zfp06HHWbn8lvye0b2mbi4JISo1M0scmAB5cjsRzz7dZsFr2f4paUjZ0KoNA5ClqOp6ak7hXG2PfHwm9djeAjh9qtEHLZLufN2xn+wnlajW7Y7RW8bzPG3t+pStr22mJ2SfD+H07ddFJAo25Dc+56zKiJ4szv22RERxBERPj6REQEREBETGvbsUx5seQ/yfSfLWisby+xG6/UqBRkkAeZkZc8U6Ux/3Ef2H4yLN09Qk1BghmAGrI052PLbI6ffKS0w5NTM8VWrjiO3t1ioGFTxBwVOSdwRgiWEqDUaYzlVU40sAFOQuDyP0TsDt8ZdBlu6dlQsApKjOGfQuOpLYOBMvMyqqMorVFRdTsFUdSfu9T6TAHE2rt3VnTNZ+rkEUk9STj/GemZL8O7IgsKt5U7+p0TlRX0x1+4ek0U01rd8QnbJEdIegat44NpSwFDL86qDAUHGoKD/SvQnbkJsfCOy1Kie8qE163M1H3APop/ucmTiIFAAAAAwABgAeQEqm3HirSOEbWm3ZEx7m7WnzOT/COf5SLuL1qm3JfIf5PWc5M1afL7XHNmfc8QVNh4m9DsPcyLr12f6Rz6dB8Jh19FLXWZtI0DUzO2hVXJzgnSv0jkgDO2eQl+Ycma1/horjir2UFCW5r3ZUgpoyS2eerOMYyMY+PSXJgcR4nTpeA5eq2y0UBNRs+g5frEh4TadoUmYiOXz52t7Nvw66ai+Sh8VKpgAVKZOx22BHIjzHliSHZjsTc3zAJTZV23I3x54OwHqcfGdtt+yLXndteoqU6OO6oDD1F2Ay1VsnOAMnn7TcbOzSioSkgRR0A+8nqfUz9dg+qZKYIrMff6z+erycmLytxPDTuyXyb29mA1RRUqdRzX2J5t7bD0m7ooAAAAAGAANgPKVRMGTLfJbyvO8qUpWvRERJuyIiAiIgIiICIiBZu7gU1LHpjbzJ2AmsfPDXAqeLxgEBkdGA6AowDL7ETZOI2vfU2TONQ2PkwOVP2gTSK169JytRHYhVHdJQdnDgtqbVnBUjTgAbYO5ztk1MXnaI6VxzEdpCrTOVIfABJZcA6xpIxk8t8HbylWJiU6ty5/Z2NYj+J2WmPsaVWvZWvVwlZ1oW4H+jSYs7dSCx/P2ka6e89w7nJDGueMKG7uipr1jsETcc8HJHl6cuuJnWXZWrcEPfv4cgi2Q4Qf1EdfbJ/mmycL4TRtV00aYXPNubt7sdzM6bMeGtPlG15lZtLRKKhKSKiDkqgAe/vL0pdwBkkADqeUjbnio3FPGR1PT4fjOr5K0jeStZt0kK1dUGWOP7n2HWRlxxFm2Xwjz+t+UwWcsck5Pn1gTDk1NrcV4heuKI7W6JbSNZUv8AWK50k+md5dEtvTBYNqbwhhpB8JzjcjqRjb3MGqNOrUNOM6sjTjzzyxIKLmZh3d+tHUavgphVIqErhyc5RVB1EjAzt9YeuMalfVbpillT14ODcPkUE88dWP63k1wnsvTpN3tdjcXH+4/0V/oTkP1yl8entbmeITtkiOkRa0rq93pg2tuf3rj9s480X6vv9hmycH4HRtB+zTxn6VVt6je7f4Ekom6mOtOkLWmeyIiduSIiAiIgIiICIiAiIgIiICIiAiJTUcKCScADJMCrMwLriSrsvib/AMR7n8JGX3EHqMFC4pENk6sHbGAR1zk+2OssTDk1XpT9164v7l6tXZzljn05AewmJWZaeqpp56QxWmWdtwq5CjJxn4DMvgSqZJ3md5WjbbZ4BBMj+IcWW3JFTmSvdoh11auRv4MeHfbnj16T214PdXm9cm1tz+6U/wD6HH87fVHp64IlceK1+nM2ivam44sA/dUEavX/ANtNwv8AW/JR+tpl8P7Jmppa9ZSq402lPw29PyBA+lj9Zmw8N4bStk7ujTVF9OZPmTzJ9TMubceCtOfVC2SbKKVJUAVVCqBgKAAAPIASuIl0yIiAiIgIiICIiAiIgIiICIiAiIgIiICa/f8AElquaSsDoCsVB3OSQrH0ypx7TYJp3E3NqzKdGksGRnfQuhnGsasHdQSQOuw25zPqfLx4Ux7b8snTmW7dWCKHYM4UBnC6VZsbkLk4HpkyPbtBQOyM1U+VKlUqZ+wY++ea7qswa3s66kqVDV2FKiMkHW1POSdvLPPzmKuK8+i82hI3F0lJdTsFUc2JwP8A36TAtWub7/pV7mged1UXdh506Z5+5+6SvDOyShhWvH+c1xyDDFGn6JT5fEzZsTXj00RzZG2WfRD8E7OUbQ61BqVm+lXqHVVY9dzy+EmIiaojZIiIgIiICIiAiIgIiICIiAiIgIiICIiAiIgIiICUVKSsMMoYeRAI++VxApRABgAAeQGJVEQEREBERAREQEREBERAREQEREBERAREQEREBERAREQEREBERAREQEREBERAREQEREBERAREQEREBERAREQEREBERAREQEREBERAREQEREBERAREQEREBERAREQEREBERAREQEREBERAREQEREBERAREQEREBERAREQEREBERAREQEREBERAREQEREBERA//2Q==;" vertex="1" parent="1">
          <mxGeometry x="605" y="125" width="155" height="155" as="geometry" />
        </mxCell>
        <mxCell id="WroAq-mQZTox9uwcmQEj-33" value="" style="shape=image;verticalLabelPosition=bottom;labelBackgroundColor=default;verticalAlign=top;aspect=fixed;imageAspect=0;image=data:image/jpeg,/9j/4AAQSkZJRgABAQAAAQABAAD/2wCEAAkGBxAPDxANEA8PDw8NEA0PDw8QEBAQEBYQGBEWFhYRFRMYHSggGBolGxUVLTEiJSkrLi4uGB8zODMtNygtLisBCgoKDg0OGhAQGC0lGCUrLS0rLS0tNy0tLS0tNy0tLSstLTcrLTcrLSstNy0tLS0tLTctLS03NzctLSsrNzcrK//AABEIAOEA4QMBIgACEQEDEQH/xAAcAAEAAgMBAQEAAAAAAAAAAAAAAQUDBAYHAgj/xAA4EAACAQMCAwYEBQMDBQAAAAAAAQIDBBESIQUxQQYiUWFxgRMUMpEHI0JSoTOx0WLB8BU0RFPh/8QAFgEBAQEAAAAAAAAAAAAAAAAAAAEC/8QAHREBAQADAAMBAQAAAAAAAAAAAAECETEhUWFxQf/aAAwDAQACEQMRAD8A9xBAAkAgCQAAAAAAgCQCAJAAAAgCQRKWFl8lzIhNSSaaafJp5QH0AAAAAAAAAAAAAAAACABIIYAkEEgCCQAIJAAgkAAAAIbJKztBxanZ21W5qNKNKLfq+SS9yWjg/wAZO1ny9FcPoy/NuU/itPeNLwz5nmHAO1t7YNfL1pKO35M250tuml8vbBocV4nO8up3VeW9Wbb64hnaK9EI3FOSilHEoyeiK5PPJyZNex632d/GG3qaad7TdvJ4XxYKU6WfFrnH+T0fh3EqNzBVaFWFWDWVKEk/v4H5ZuLWLaSzvqep8sL6njpuZOH3t1aTU7erUptYk5U5NJrmsrr7oqv1aDxbs3+L9aCUL2iqseTq0u7U9XDk/bB6dwLtTZ3yTt68ZSxl03mNResHuNouwRkkoAAAAAAAAAAAAAABAEgEASAAAAAAEMBJnhH4w9qPmbhWFKWaNu/zcPaVXPL2PSfxI7Trh9nJxa+PW7lFZ6vnL2WT856pZdR5lNycnJ797OcsnV4m5p6XGKy5YWfJvkjFKlKLxhpp7+vr4mzRvo69c4rMeenbfxwbNSaqyTp40Re6eM5fOWHzKjTo3TTy+9jGMt7G5RvIybawpZiot7bv6n9sHzK2hJzlnQlyUcZ25yx4Gg1h4W6+3uBZ3UIxUdll4wksNJbb4558Ssr306dWNSlOdOpTacZwbjJPyaEq+E34LGTRpQcnvu2+RMuLOv0n+FvbOXFLaUayxc22lVWs6ZJ8prwz1R3CPO/wm4N8paLK/Mrv4lR8n5R9keiImPPJUgA0gAAAAAAAAAAAAAEEgAAAAAAGG6rxpwlUk1GME22+SSMrPOPxf41OnQhawyvmM/Eks/RH9OfNkt0R5j244++I3c6zb+DBunRXTQn9XuVmMLEcSco4UVzbf6mj4nCPN7dNtjDOlNNST25rxGPFr5uaEYxxj8zbON155NfTh+WDYdRzy5b9P8B09tTKjG60tOjK04e2FnHhk13t7meUfLma913Ese3qBrV5anpXJc/U6z8PuAfNXEZSjmnSalLPLOdonL2NFymklmUmsLGcvJ+g/wAPezytqEE135d6bxjvNmL5rXI7DhFooQRZnxCOFg+zbIAAAAAAACESQiQAAAAAAAAAAAAACJcjiO2nD1Xi4yWcfS+qfijt2cz2uraYxpQ3rV3pglzS6yJTjyG07N0q3x6tSr8GFsp95JyhKSXh0y/A5i6pzTlsm1z07pL+56Lc8O1L5WMs0qbbnpfOrnk35Yz7ooKHZicbtSlNSpybfhL0aJ54v2uetaClBzn9OFhp4aMcqabwsNefM7TthG0klCjBQdulGrVg/rqde7yeMfycfQ4bVrPVRjKrFZk9KeUlzyi7TTXqU8fz5bFNcT1zeOS2X+S9rybjKD2WHHON8lbwzh8qlWNKKzKUlFLzyTLJZi7H8L+AfHrfHlHu0n3W87z9PI9+4dbKEV6HNdiuBxt6NOml9K3fjLm2dlFFkLUgAqAAAAAAAAAAAEEgAAAABAEgAAAQwPitVUIuTeFFNt+R5/xOvOo53inCM6mKdpCWXPCedaS6c92XPbLiSUfl1LCktVR8sQ/bnzOe7N20riauJxSytFJeFPp7v/BOi24RwuEKTlPlFSlOTxu3vKT98lDTuIScqrg5OvJxt4Yxilh99528zoO0N5h07Gm8OotdWS5Rpr/ODR4PYxq1nWWpxaUKernoXVLpkqWfxzXFOzkKlLTNOKivqjmL9fM17KE7K2cKUX8avlRlykoLq0dl2mlmdO1htFd+tPn3VuoJeLNO3t5XTUsYhDKpLG+l83nzwYuPrrUy8vJrunOpW0OnNbrLcWnnxydt2B7M4ru4km8KMYalh56yOwh2deeR0XCOGKmuQmOluW1jZ0NEUjZIRJtkAAAAAAAABAAkAAECCQAAAEEgAAABqcSvI0acqsuUVn36I2mzjO1XFkpNvelbvZfvr9IrxxkmxR8TUq9SNCWHOq1WuMbuK6U8/wCx1NDRa0JVpbKEf/iS/gquzVhJt1qu9SrJzqPz8PYwdpuIKrXVBP8AJs2p1scpVcbQ9k17sCvhqrylqX5l01Oq/wBtLO0V/b7nWRcbW3dV/pSUV4vkkiv7PWLbdWSxKb1NeC6R9ka3Hr341XSt6VrnKz9U/wDcbGrqlJ6OdW5/Mqye+mD6Lwb5HYcFsVCK26Io+zlhKTdSf1TeqXl4RXodlShhYKkToXgfSRICgAAAAAAAAAAgEgAAAAIAEgAAAAAB8Tmkm3yQFdx6/wDg0+7/AFJ92mv9XiefUYfNV401l0rWTbk/11nzl7ZLDtJxeUpucG9U2qVv9L2/VPBZ9meFqlTWeiy2+bfVszfIzcTu1Z22Y4+LU7lKPjN+XlzOe4fYvUrf6tElVrT5ylWazhvyzkm+4h8zWldLDpUfybRP9U+UqiX/ADZF/wACslShqk+WZSk+bfWTZeieL3Xy1vop71q3cprzfN+yyUdtZZnGinqVPvVHzzV9euD6vLmVWpK68/hW0ffeWPuX/Z3h2lJvnzb8X1YiLjhlroitjfPmMcH0VQAAQSABBIAAAAAABAJAAAAAAAAAAAAQyh7SXuEqCko603Ul0jTXP7lve3MaUJVJPCimzzPjt3OtNUU/zbmWamHnRTXKP2JUpwG0dzcO4aemPcp53WF1R0PaO5lCELGi8VrnZtPDhS/VL/Y2eFW8Lag5vuwpRy/RIoak3Ucq0li4u8RgnnNOguq/51Iv4y8LtlVqR0xSpUF8OkkufjP1ZacZrOThY0niU1rqyzjTTW+/rgzW6haUHVawoR2Xi+kV5lNiWnf/ALm8euq+sKXSCfngpWfh1D41VSX9On3KSxhaV+rHmdna0VGKRXcFsVCK2xhFwimkgAAAAAAAAAAAAAAAAAAAAAAAAAAQySv4ve/Cp7bzm1CmvGT2QFD2q4isVFqxSto6pvpKpjuU/MouyPDpVJSuai79Z6uXKOdkffFqka1SPDqWZxpS+LdVc511G86M+r/g6CrVjZ27njvtaacfGb5JE6vFf2iuVOfyyaVG2SrXL8WvppLz3yOC2zrTdeUca9ox/bTX0xNSrZNOFq3rqNqvdy5/mP6abLy4k6NJQp/1qz0U11Tf6seCERqX1xGrWep4trLvT8J1ekF44yTwW0lUm6013pvPoukfYw1qC1QsqbcoUMSqy5udbnv6ZOp4dbKEVsINqlDCwfYRJQAAAAAAAAAAAAAAAAAAAAAAAAAIYESlhZ8DiO0HGlFVLlJya1ULSPR1HtKp7HQcduW9NtB4nWypSX6af6pvw2OMg/nbvuLFtaP4VFeMlzn9zNVYdkeE6IKUt5y702+r5me4vFOrO8aUqFnmnbw6TuXtqXjjl9zfvVOMI21H+rX2yv0w/VUfpn+SphSjUqxt6a/ItG4x8J1f1VP5a+4Nt3gdo4qVWo8yk5TqSfi92Y6l21ru5RanLNGzjLbbrPH8lhc0lNxtV9DWq4eXHFPHLPTJX0pfNVtaWKVNaKMf9PWXuPiN7s/w/Sk3lvdtvm3zbOjSMNrS0xwbBoAAAAAAAAAAAAAAAAAAAAAAAAAAAMN1XVOEpyeFFNtmVnP8auI1J/ClLFKjH41w/wDSvph74AoeOX01TaW1zxF6ILm4W3JemUWPZ+whbUU3hRpxy3/LbKnhFKV1cTu5raT00l4U09sLzLniU1OpG0zilSj8a7n0VJbqHrLH2M/VaVa8lGMrjdXF+pU7df8AroJ41v8Av6s3LGnG2oOo03pWy5tyzsl4tv8AuadhF3VeVzJYTShSj+2kuX3xks6taC115rNG0+lfur+Xpy9WUaPENUKfy/8A5F21UuGv00/2Z+y+5d8FslCK2xsVHBradWcq9XedV6peS6RXkkdZShhYEK+kSAVAAAAAAAAAAAAAAAAAAAAAAAAAAAYq8sRbOF46p1l8tGGlVK3xK9VSy5xXKODu6sMrBW/9MWrUBXUdNrQdTG+FGEerm9oxXvgqb6MklZ86teSr3s1692l9seyLzjcJJQccKVKSnBtZWpeK8Cv4NZS1SrVHqnOTnOXn4ehL1W5TpunCNOH9Sr3Y+S6y9kaF61VqxtKf9C1ay/3VurfjjL92ZeKXk6MdaX513mlQj1hTxvU/s/sbfZ/humK5+r5t9WwLbh1toijdEUSVAAAAAAAAAAAAAAAAAAAAAABBIAAAAAAIwSANavbKfMw1bfTF4N8+ZRyBydPhjlV1vLxlRy28JvLSzyOntqSjFI+lSS6GQASAAAAAAAAAAAAAAAAAAAAAAAAAAAAAAAAAAAAEEgAAAAIZIAAAAAAAAAgkAAAAAAAAAAAAP//Z;" vertex="1" parent="1">
          <mxGeometry x="87.5" y="720" width="135" height="135" as="geometry" />
        </mxCell>
        <mxCell id="WroAq-mQZTox9uwcmQEj-34" value="" style="shape=image;verticalLabelPosition=bottom;labelBackgroundColor=default;verticalAlign=top;aspect=fixed;imageAspect=0;image=data:image/jpeg,/9j/4AAQSkZJRgABAQAAAQABAAD/2wCEAAkGBxIREBAQEA8QFRAQFRAPFRAPDw8QDhAQFxUWFhUVFRYYHSggGBolGxcVITIhJSkuLi8uFx8zODMtNygyMCsBCgoKDQ0NDw0PDi0ZFRkrLysrKyw4LSs4Kys3LDQ3MjQvKysvKys3Li04Ljc3Nys3KzcrNy4rKzcrOCsrODcrN//AABEIAOEA4QMBIgACEQEDEQH/xAAbAAEAAgMBAQAAAAAAAAAAAAAAAQUCAwQGB//EAD8QAAIBAgMFBQQJAgQHAAAAAAABAgMRBCExBRJBUWEicYGRoTJCscEGEyMzUnLR4fBighVjkvEUQ1OisrPS/8QAFgEBAQEAAAAAAAAAAAAAAAAAAAEC/8QAFxEBAQEBAAAAAAAAAAAAAAAAAAERIf/aAAwDAQACEQMRAD8A+4gAAAAAAAAAAAAAAAAAAAAAAAAAAAAAAAAAAAAAAAAAAAAAAAAAAAAANdatGCvJ+HFlXiNoSllHsrp7XmBaVK0Y6yS6cfI1yxaXCb/ta+JSqb4N59SGwLR7Tj+F+JH+Jf0rz/YqyQLRbR/p/wC79jZHaEeKa8Lr0KdMyUwL6nVjL2Wn8TM8/wBUdVDHyjlLNevmBbA10aykrp/qjYAAAAAAAAAAAAAAAAAAAAAADnxeKUFzk9F+pniayhFt+C5so6k3JtvVgKtRyd27swJACxJBICxFjkxeJlGcbW3Elv3bVt+cYxayztabMoY+GW/eDbSSqOKburrRvr5AdIJFgCMjElFGVOo4O6fj+pcYXEqa5SWq+aKcinNxks+5/IK9ADTha6muq1RuIgAAAAAAAAAAAAAAAAAcu0Ku7C3GWXhxAr8dX35dFkv1OYlkAAAAJIJAiUE9Un3q5yy2fCzSvZrde83O8G470c3fNRUeiOsFFO686F7pbkdKUElvSndqMMs/tJKCzyS04ljgsbCrFyg9G4yjdb0JJtNSS0eRuqU1JWfnxT0unwfUoq0J4eolBJU39X27WhCjTUrwlrko70r5Nynk8rMq/aIOfAYz6yMW4ShKSlLcmmpKKlZXyyejt1OpoAjKUbqxijOIDC1nF9VryaLunNNJrRlDVXvLVeq4nfs6tnu8Hmu8IsQAQAAAAAAAAAAAAAAqNo1Lza4Ry/UtpSsm+WZ5+crtvi8wMQAAACAAmxzzxlJOzq00+TqQT8rgbyTGM01dPLms0ZFEmFakpxlCSvGSaau1l3rQzAVT0VOlUqNz7KcZz3qbcqylG2+pLipWioLhHrc7cBj1UclZJrNJSUrx0z6rK6V1mrN3OqpTUouMldSTTXRnPg8Cqbcm96by3t1RVsuCyu7Jt8Wu5IOsmJAA2muj2W48s13GyJhWytLk7eD/AIgi6oz3op8/iZnFs+prHxXzO0gAAAAAAAAAAAAAOfHytTl1y8ylZa7Vl2Eub+TKkAQSQAOfHY2NGDnPTRJZylLgkuLN05FBVqqpN1pvsQbhSXdlKfe2rLouoVzYyVWsr1puEJZKjB6L+t+8+nwOaez6EI2s03o2nLxtc6J46N25Ru32V2rKKz4HPCpGcnd56JPh3MM658Ph6lJuVCrJccn2Xpqnl5l/sP6QRqy+qqWjWXK+5U57vXoUOJ7TtB9njf3v2KzE4Zwe8nazvFp5xlk1n5+aKa+nklP9Gtrf8TRTf3kOzNdeD7ms/MuA0kkgkCRYgztkBMDKUbpp8cjCJtIiMHUtut6rJ/B/MuCkhk5Lufn+6ZcUZXin0AzAAAAAAAAAAAAAV+1tId7Kws9raR72VgAgkgDix03uzs7N9lPk3kn4Xuecx1TSMVaMUlFcorL4F9jpWjJ8rv0Z5fF1OXCwK0zqcuhjGWbyzuY9E+qIT9fQMumN3mnaSefVc/5zNGMqOWTStwa0T4X/AJzNlCWab/K+55GLptyaas02r9F3fqBH0Wxv1WKgvdrfZtdbXi/Oy8WfRUfLMbgKsV9fFrdhKEk89690tOCyXHgfT8NU3oRktJJS8GrhqNpJAKqTZA1mdMCWjYjFmVPQiMH7a6p+j/dlng32e5tFbUWce9r0f6FhgtH3gdIAAAAAc20q7p0pzXtJWjfTfeUfVo6St+kH3P8AfR/9kWA2PVnLf3pNpWtfW+d/kYYjaUlVdOCjaLjF3vdyaT+DXqbdiL7OX5n8EVmGd8RK/wD1qnpJpeiQF3jcWqUd6XFqKS1cn/G+5MnB4lVI7yTWdrMrvpF/yOW/L/V9XK3pvHZsr7qP93xYGO1l2Yvr8mVRc7Sjem+jT9SnAggkAVWPXYn0+R5bFSzffc9fjKftLg0eSx0LSd+7LoErlg1vZp88tbGWIav4LzNMnx4qy8DFZeGfeGW+m73zOrFTtOXn52OXD072XGTXxNtWSk5tWs21fhne3yLhrbtPGxeCm3a8VFW676s/n4HrtgTvhqD/AMun/wCKPnuMqbtGVKMc5bt33N//AFb9eH0jZlLcpU4fhjGPkkiNx1EkElUMoamJlEDOTM6RqbNtIIit7n5l8Gd2C97wOGt7n5vkzvwWj8AOkAEAAADg27C+HqP8G7V8ISU36RO8iSumno8rc0BWbDnlOPVS+XyRwYyLp4mf9ThWjy0UWvON/wC5GOCk6FRwd/s3uPnKm/Zl1yt4plrtbB/WwjKFnUheUc1acX7Ub9cvFIDLaVD66j2LbytUhf8AEuHS6vHxOHZGOUezK6TfFZxlo01wzyMtj43NQd7NtK6tKMuKa4Z8ODLKWDpue+4Leyzzzto2tG+vQDZXheMlzTXiUJ6IosVT3ZyXX0eaA0gkgDTiIXR5ra2Ezdlmle3OPNd2nlzPVs4sfg9+OTtJZxla6T6rino0B4HEQzafTNGMYrN58PIva2GUnKLju1Y5yhftW4NP3ov8X+xqhgsrqLv/AFNNd2RdYxxUouKbzTd93pfV/wA+R0YTCRcVFt77zumsl3ce87aGHi/be89LK+VupwY6lOjvOHau+dpvkv5yCyNdHZG/iaS396Kkqklu2tGOa6a/Fn0CmrJFJ9HdnOnHeqfeTs5adlcIl4RpkgQSVUkoglASb6ZoRvhoEY1Pagu9+lvmWGCXZfeV79vuXxf7FnhlaK8wNoAIAAAAACt2vgHNKpBfaQVrafWQ4x7+K68rs17ExLd4Wbir6ppxf4Wnp3FsAMFRipOSjHeesrLefDNmYAArdrU84y/tfy+ZZGrE0t6Ljz07+AFEQS0AIBDPNvEVVP6+kn9rmqUqjnRxMPd3W/uarirpey8lnwslvUtkyVc4/Z8KySms45xnF7tSD5xktCnrbNxEPu50qkf8xOFTzWT7y9wOLjWpwqwvuzW8rqzXNNcGndeBvsRXk54HFTvbcpt+9vb3pmWWzdkqDUpSc5r35aR7kXH1S5GSQEQjYyQJKBJCJCpJIJAyib0aaaM5ysgFFXb6u3yLdIr9n08/yr1LEiAAAAAAAAAAAAAAAAKradC0t5aS16SOIv61NSi4vRlFVpuLcXqvXqBrnG6sUG0XPD0rys6WHTqRldKc3GLjSpuPPecc1ru6Lj6ExlFPVJ8c1fPgalxLNcexMG6OHo0n7UIRUnzna83/AKmzuIJIoAABJBIUJIJQEokEwQGyCIlql4ktm/A0bu70WfjyIjswtPdiubzZuAAAAAAAAAAAAAAAAAAHNjcLvrL2lp16HSAPOtWyeqILjG4NTzWUvR95USi07NWa4AAQSAABQJIAEkhEhRGxZGN7GVGk5uy8XwQGVKDm0l/OpbUoKKSXAxoUFBWWvF8zaRAAAAAAAAAAAAAAAAAAAAAANGJw0ZrPXg1qjeAKPEYSUNVdfiWnjyNB6M5quBhLhZ845fsBSklhPZf4Z+aNf+Gz5x83+gHGSdkdmz4uPm38jbDZnOfkrFFejOnFy9lN9yLWngoL3b/mz9NDekQV1DZz1m/Ba+LLCEElZKyMgAAAAAAAAAAAAAAAAAAAAAAAAAAAAAAAAAAAAAAAAAAAAAAAAAAAAAAAAAAAAAAAAAAAAAAAAAAAAAAAAAAAAAAAAAAAH//Z;" vertex="1" parent="1">
          <mxGeometry x="84.5" y="133.5" width="138" height="138" as="geometry" />
        </mxCell>
        <mxCell id="WroAq-mQZTox9uwcmQEj-37" value="" style="verticalLabelPosition=bottom;verticalAlign=top;html=1;shape=mxgraph.basic.rect;fillColor2=#FFFFFF;strokeWidth=0;size=20;indent=5;labelBackgroundColor=default;sketch=0;fontFamily=Helvetica;fontSize=12;fontColor=default;fillColor=default;absoluteCornerSize=1;fillOpacity=100;strokeOpacity=100;allowArrows=1;gradientColor2=#FFFFFF;strokeColor=#FFFFFF;" vertex="1" parent="1">
          <mxGeometry x="285" y="690" width="260" height="60" as="geometry" />
        </mxCell>
        <mxCell id="WroAq-mQZTox9uwcmQEj-9" value="" style="endArrow=classic;html=1;rounded=0;entryX=0.473;entryY=-0.033;entryDx=0;entryDy=0;entryPerimeter=0;" edge="1" parent="1" target="WroAq-mQZTox9uwcmQEj-37">
          <mxGeometry width="50" height="50" relative="1" as="geometry">
            <mxPoint x="408" y="870" as="sourcePoint" />
            <mxPoint x="400" y="720" as="targetPoint" />
          </mxGeometry>
        </mxCell>
      </root>
    </mxGraphModel>
  </diagram>
</mxfile>
